<?xml version="1.0" encoding="UTF-8" standalone="no"?>
<!-- Created with Inkscape (http://www.inkscape.org/) -->

<svg
   width="70.21521mm"
   height="64.888268mm"
   viewBox="0 0 70.21521 64.888268"
   version="1.1"
   id="svg1"
   xml:space="preserve"
   inkscape:version="1.3.2 (091e20e, 2023-11-25, custom)"
   sodipodi:docname="LOGOBREWING.svg"
   xmlns:inkscape="http://www.inkscape.org/namespaces/inkscape"
   xmlns:sodipodi="http://sodipodi.sourceforge.net/DTD/sodipodi-0.dtd"
   xmlns="http://www.w3.org/2000/svg"
   xmlns:svg="http://www.w3.org/2000/svg"><sodipodi:namedview
     id="namedview1"
     pagecolor="#ffffff"
     bordercolor="#000000"
     borderopacity="0.25"
     inkscape:showpageshadow="2"
     inkscape:pageopacity="0.0"
     inkscape:pagecheckerboard="0"
     inkscape:deskcolor="#d1d1d1"
     inkscape:document-units="mm"
     inkscape:zoom="1.3843855"
     inkscape:cx="97.87736"
     inkscape:cy="244.51281"
     inkscape:window-width="2048"
     inkscape:window-height="991"
     inkscape:window-x="-9"
     inkscape:window-y="-9"
     inkscape:window-maximized="1"
     inkscape:current-layer="layer1" /><defs
     id="defs1" /><g
     inkscape:label="Capa 1"
     inkscape:groupmode="layer"
     id="layer1"
     transform="translate(-67.783511,-82.735942)"><path
       style="fill:#e61a21;fill-opacity:1"
       d="m 67.804676,139.03332 c 0.0974,-0.53186 0.40025,-1.03769 0.96036,-1.60382 0.59866,-0.6051 0.59613,-0.58412 0.16675,-1.38068 -0.31612,-0.58646 -0.54131,-0.78849 -0.8051,-0.72229 -0.32106,0.0806 -0.37338,-0.0228 -0.19175,-0.37879 0.26154,-0.51265 0.40378,-1.00001 0.50207,-1.72021 0.10986,-0.80493 0.12293,-17.29896 0.0141,-17.76738 -0.0397,-0.17106 -0.19123,-0.48729 -0.33664,-0.70275 -0.31629,-0.46864 -0.32351,-0.55219 -0.0684,-0.79182 0.26108,-0.24527 0.42938,-0.23204 0.6198,0.0487 0.15134,0.22316 0.15971,0.66024 0.20135,10.51983 0.0355,8.40905 0.0645,10.3411 0.15894,10.58334 0.16686,0.42808 0.50811,1.11795 0.64181,1.29748 0.15947,0.21414 0.5861,0.16273 0.62006,-0.0747 0.0137,-0.0958 -0.0914,-0.40869 -0.23356,-0.69523 -0.14217,-0.28655 -0.30054,-0.76059 -0.35193,-1.05343 -0.0624,-0.3555 -0.11289,-3.965 -0.15198,-10.86177 -0.0546,-9.6337 -0.0688,-10.35784 -0.21047,-10.75267 -0.23268,-0.64839 -0.50273,-0.889 -0.99782,-0.889 -0.22412,0 -0.40749,-0.0306 -0.40749,-0.0681 0,-0.0885 0.49027,-0.5427 0.762,-0.70594 0.77322,-0.46452 1.75568,-0.56005 2.49601,-0.24271 0.49246,0.21109 1.28206,1.00067 1.55581,1.55575 0.10972,0.22248 0.24993,0.42386 0.31157,0.44752 0.19158,0.0735 0.63917,-0.19518 1.84823,-1.10951 0.64169,-0.48527 1.27505,-0.9061 1.40746,-0.93518 0.98199,-0.21568 3.54475,1.45972 4.15217,2.71447 0.27765,0.57356 0.54544,0.79559 0.89177,0.73939 0.33386,-0.0542 0.34976,-0.007 0.13595,0.39952 -0.40215,0.76547 -0.39531,0.59332 -0.39531,9.94709 0,8.33201 0.008,8.82581 0.15469,9.18633 0.0851,0.20955 0.25437,0.48603 0.37621,0.61439 0.14175,0.14935 0.19221,0.2627 0.14012,0.31479 -0.0448,0.0448 -0.38551,0.11952 -0.75721,0.1661 -0.37169,0.0466 -0.88299,0.14276 -1.13621,0.21372 -1.01272,0.28378 -2.6985,1.25989 -4.32326,2.50329 -0.34925,0.26727 -0.76475,0.55158 -0.92333,0.63181 -0.35816,0.18118 -1.30892,0.19699 -2.52528,0.042 -1.3915,-0.17733 -3.20752,0.12135 -3.88647,0.63921 -0.39064,0.29796 -0.48492,0.27325 -0.41498,-0.10879 z m 9.00226,-2.72346 c 0.30651,-0.15836 0.37892,-0.24253 0.73443,-0.85371 0.1706,-0.29329 0.17235,-0.3931 0.17094,-9.73666 -0.001,-9.28946 -0.004,-9.4471 -0.17329,-9.86367 -0.32254,-0.79448 -0.53379,-1.11443 -1.05354,-1.59563 -0.57048,-0.52816 -1.44679,-0.98788 -2.00463,-1.05164 -0.64711,-0.074 -1.23363,0.47209 -1.45227,1.35207 -0.0702,0.28247 -0.11505,2.87765 -0.15442,8.93234 -0.051,7.84377 -0.0437,8.60457 0.0904,9.40409 0.24601,1.46636 0.76366,2.33062 1.78063,2.97289 0.96589,0.61002 1.50841,0.72578 2.06171,0.43992 z m 56.744464,2.40039 c 0,-0.0263 0.0369,-0.11693 0.0821,-0.20131 0.15975,-0.29849 0.35149,-2.13017 0.25393,-2.42577 -0.17846,-0.54074 -0.24614,-0.51303 -2.03612,0.83348 -1.16804,0.87866 -1.22479,0.91017 -1.63968,0.91017 -0.32691,0 -0.58225,-0.076 -1.06687,-0.3175 -1.46804,-0.7316 -2.33681,-1.48014 -2.86244,-2.46632 -0.3168,-0.59438 -0.48962,-0.71682 -0.90245,-0.63937 -0.16233,0.0305 -0.29514,0.0369 -0.29514,0.0143 0,-0.0226 0.0926,-0.20782 0.20587,-0.41159 0.44871,-0.80751 0.47171,-1.11811 0.46844,-6.32359 -0.003,-4.95356 -0.0266,-5.34781 -0.35721,-5.98709 -0.0717,-0.13872 -0.21054,-0.32471 -0.30844,-0.41331 -0.0979,-0.0886 -0.178,-0.20977 -0.178,-0.26926 0,-0.12612 0.2974,-0.23975 0.4235,-0.16181 0.10261,0.0634 1.18907,-0.16342 1.90484,-0.39769 1.05501,-0.34531 2.22412,-1.0407 4.13264,-2.4581 0.8883,-0.65972 1.04005,-0.74265 1.3589,-0.74265 0.19741,0 0.39512,0.0342 0.43936,0.0759 0.0442,0.0417 0.28998,0.1628 0.5461,0.26901 1.11177,0.46104 2.26999,1.38487 2.71803,2.16796 0.42657,0.74557 0.64258,0.95847 0.9725,0.95847 0.31992,0 0.36369,0.10941 0.16006,0.40012 -0.30729,0.43872 -0.32716,0.86922 -0.35671,7.72787 -0.0215,4.98991 -0.003,6.82955 0.0711,7.112 0.10892,0.41454 0.35841,0.87541 0.61022,1.12721 0.22284,0.22284 0.1063,0.29502 -0.57688,0.35728 -0.92452,0.0842 -2.50473,0.62759 -3.302,1.13536 -0.25187,0.16042 -0.46566,0.21839 -0.46566,0.12625 z m -0.73663,-3.137 c 1.10556,-0.55859 1.18928,-1.12816 1.13097,-7.69476 -0.0223,-2.5146 -0.0657,-4.7625 -0.0963,-4.99534 -0.22771,-1.73138 -1.65359,-3.23352 -3.16132,-3.33041 -0.67686,-0.0435 -1.03655,0.13338 -1.34905,0.66341 -0.22279,0.37788 -0.22513,0.39939 -0.28521,2.62467 -0.0913,3.38171 -0.0854,8.26381 0.0109,9.06704 0.14451,1.20498 0.38332,1.79042 1.00421,2.46184 0.5375,0.58124 1.01101,0.919 1.65917,1.18351 0.44687,0.18236 0.75411,0.18803 1.0866,0.02 z m -34.281914,2.69807 c 0.0306,-0.17463 0.0794,-0.78322 0.1085,-1.35243 0.0455,-0.89005 0.0345,-1.04199 -0.0787,-1.08541 -0.19339,-0.0742 -0.67391,0.20023 -1.65925,0.94765 -1.44692,1.09753 -1.42105,1.08302 -1.91817,1.07583 -0.51229,-0.007 -1.19492,-0.30732 -2.17948,-0.95758 -0.75665,-0.49974 -1.14051,-0.89482 -1.70245,-1.75222 -0.42043,-0.6415 -0.44816,-0.66558 -0.79545,-0.69071 -0.19791,-0.0143 -0.35983,-0.0608 -0.35983,-0.10332 0,-0.0425 0.10477,-0.2975 0.23283,-0.56664 l 0.23283,-0.48934 v -5.588 -5.588 l -0.23359,-0.38973 c -0.12847,-0.21435 -0.30944,-0.45838 -0.40216,-0.54228 -0.27609,-0.24986 -0.21223,-0.38032 0.18616,-0.38032 1.06803,0 2.96848,-0.61877 3.93618,-1.28159 0.19466,-0.13332 0.38103,-0.24241 0.41415,-0.24241 0.0331,0 0.59224,-0.40315 1.24248,-0.8959 1.12648,-0.85363 1.63593,-1.1361 2.04901,-1.1361 0.57826,0 2.18402,0.87979 2.988224,1.63723 0.24407,0.22988 0.61384,0.71282 0.82171,1.07319 0.20786,0.36037 0.43209,0.67601 0.49829,0.70141 0.0662,0.0254 0.27745,0.0251 0.46945,-6.4e-4 0.28088,-0.0377 0.34909,-0.0208 0.34909,0.0863 0,0.0732 -0.0384,0.15687 -0.0853,0.18585 -0.15061,0.0931 -0.36724,0.58013 -0.45173,1.01563 -0.10868,0.56023 -0.16426,10.43026 -0.0713,12.65915 0.0688,1.64857 0.0843,1.7625 0.27707,2.03655 0.11232,0.15967 0.25184,0.32077 0.31005,0.35801 0.0582,0.0372 0.10584,0.13927 0.10584,0.22674 0,0.13082 -0.0864,0.16873 -0.48684,0.21373 -1.02065,0.11467 -2.972704,0.71657 -3.329824,1.02673 -0.0735,0.0639 -0.22138,0.11609 -0.32858,0.11609 -0.17867,0 -0.19028,-0.0264 -0.1393,-0.3175 z m -0.95847,-2.77506 c 0.46673,-0.16468 0.63279,-0.3181 0.86247,-0.79684 0.18339,-0.38225 0.18561,-0.44024 0.2139,-5.58056 0.0163,-2.96375 -0.007,-5.54538 -0.0533,-6.01185 -0.13737,-1.37118 -0.60712,-2.22967 -1.57138,-2.87183 -0.94033,-0.62621 -1.10479,-0.69636 -1.63261,-0.69636 -0.59922,0 -0.95007,0.21715 -1.22771,0.75987 l -0.19601,0.38313 v 5.969 c 0,6.44328 -0.0152,6.19923 0.44028,7.06967 0.33178,0.63404 1.45495,1.55063 2.18158,1.78031 0.4614,0.14585 0.55779,0.14541 0.9828,-0.005 z m 11.000334,2.19653 c -0.30268,-0.11765 -0.60748,-0.24796 -0.67733,-0.28956 -0.0699,-0.0416 -0.2794,-0.15775 -0.46567,-0.25811 -0.72699,-0.39172 -1.48914,-1.102 -1.95148,-1.81868 -0.48094,-0.74552 -0.72024,-0.97095 -1.03069,-0.97095 -0.23821,0 -0.23893,-0.0436 -0.009,-0.51327 0.29618,-0.60369 0.33289,-1.99945 0.30607,-11.6364 -0.0241,-8.65896 -0.0291,-8.8988 -0.19215,-9.22867 -0.0921,-0.18626 -0.27388,-0.46477 -0.40403,-0.6189 -0.13014,-0.15413 -0.21448,-0.31605 -0.18743,-0.35983 0.0271,-0.0438 0.25171,-0.0796 0.49922,-0.0796 0.24752,0 0.61201,-0.0572 0.80998,-0.127 0.19798,-0.0699 0.44568,-0.127 0.55045,-0.127 0.30573,0 1.80068,-0.68258 2.37055,-1.08237 0.18627,-0.13067 0.43392,-0.40732 0.55034,-0.61478 l 0.21166,-0.37718 v -7.62 -7.619999 l -0.19518,-0.54305 c -0.50009,-1.39135 -1.78504,-2.53981 -3.00164,-2.68279 -0.87599,-0.10296 -1.30954,0.34996 -1.54805,1.61717 -0.12632,0.67117 -0.14293,1.45926 -0.13934,6.61132 0.004,6.362869 0.007,6.401339 0.48604,7.258439 0.1198,0.21434 0.40592,0.54721 0.63583,0.7397 0.22991,0.19248 0.41801,0.38423 0.41801,0.4261 0,0.18656 -2.06215,1.77077 -2.30499,1.77077 -0.28358,0 -0.73773,-0.26165 -1.22134,-0.70363 -0.53157,-0.48583 -0.7275,-0.83013 -1.01056,-1.77584 -0.23412,-0.78217 -0.29726,-0.87694 -0.63362,-0.95081 -0.13648,-0.03 -0.24815,-0.0764 -0.24815,-0.10308 0,-0.0267 0.12383,-0.29991 0.27517,-0.60711 l 0.27517,-0.55853 v -6.649029 c 0,-6.41311 -0.006,-6.66245 -0.16556,-7.02733 -0.0911,-0.20807 -0.25299,-0.486 -0.35984,-0.61763 -0.321244,-0.39575 -0.265224,-0.45946 0.4619,-0.52538 0.36088,-0.0327 0.80855,-0.11161 0.99482,-0.17532 0.18627,-0.0637 0.39006,-0.1164 0.45287,-0.11707 0.15845,-0.002 0.60552,-0.19631 1.46841,-0.63917 0.40477,-0.20774 0.75306,-0.34921 0.77396,-0.31439 0.0209,0.0348 -0.0318,0.33002 -0.11723,0.65599 -0.25313,0.96635 -0.21139,1.56633 0.10897,1.56633 0.19288,0 1.18467,-0.6481 2.01202,-1.3148 0.75512,-0.60849 1.09568,-0.80118 1.41671,-0.80155 0.37662,-4.3e-4 1.7291,0.66458 2.44968,1.20451 0.71834,0.53826 1.35508,1.27059 1.49901,1.72406 0.11348,0.35753 0.37809,0.54245 0.77623,0.54245 0.40886,0 0.44208,0.0397 0.25564,0.30592 -0.0671,0.0959 -0.20179,0.38055 -0.29925,0.63268 -0.1749,0.45249 -0.17714,0.5507 -0.17351,7.612729 0.004,7.95542 -0.0156,7.67119 0.57079,8.24072 0.15193,0.14755 0.27664,0.31064 0.27713,0.36241 5.4e-4,0.0565 -0.32924,0.13084 -0.82459,0.18592 -1.22055,0.13571 -1.52558,0.22853 -2.81517,0.85659 -0.80538,0.39223 -1.20444,0.69294 -1.30058,0.98003 -0.0515,0.15386 -0.0873,1.73939 -0.0907,4.02166 l -0.006,3.76767 0.18417,0.0262 c 0.19343,0.0275 0.51673,-0.17895 1.89016,-1.20727 1.19146,-0.89209 1.24258,-0.91931 1.61436,-0.85986 0.65693,0.10504 2.04914,0.82972 2.83064,1.4734 0.28831,0.23747 1.05834,1.25962 1.05834,1.40486 0,0.0526 0.0968,0.2001 0.21509,0.32768 0.17393,0.18758 0.28908,0.23197 0.60172,0.23197 0.33397,0 0.3787,0.0202 0.3284,0.14816 -0.25837,0.65731 -0.3909,1.34617 -0.55793,2.89983 -0.0375,0.34925 -0.0563,2.0828 -0.0418,3.85234 0.0284,3.45044 0.14986,4.76581 0.54973,5.95282 0.0961,0.28536 0.17478,0.55427 0.17478,0.59758 0,0.0433 -0.27622,0.10498 -0.61383,0.13705 -1.67448,0.15904 -3.32158,0.95722 -5.60917,2.71818 -0.8463,0.65147 -1.2228,0.88131 -1.43933,0.87867 -0.0931,-0.001 -0.41699,-0.0983 -0.71967,-0.216 z m 3.36971,-2.10159 c 0.34693,-0.18051 0.57868,-0.46958 0.77261,-0.96368 0.17169,-0.43746 0.17569,-0.57851 0.17569,-6.20338 v -5.75574 l -0.28403,-0.71536 c -0.31348,-0.78958 -0.62496,-1.19139 -1.32464,-1.70881 -0.67443,-0.49875 -1.22218,-0.71826 -1.81214,-0.72622 -0.47742,-0.006 -0.51393,0.008 -0.81539,0.33158 -0.59348,0.63625 -0.58996,0.59575 -0.58855,6.77193 10e-4,5.72756 0.021,6.08476 0.37333,6.76044 0.0728,0.13962 0.13261,0.29499 0.13289,0.34526 9.5e-4,0.16667 0.92287,1.11385 1.37549,1.41319 0.24495,0.162 0.56876,0.3213 0.71956,0.35399 0.15081,0.0327 0.29593,0.0946 0.3225,0.1376 0.0739,0.11956 0.69564,0.0929 0.95268,-0.0408 z m 9.17921,2.2319 c -0.27266,-0.10946 -0.89646,-0.59749 -1.15218,-0.9014 -0.3011,-0.35784 -0.63069,-1.03984 -0.7802,-1.61445 -0.18315,-0.70388 -0.32938,-0.89676 -0.63372,-0.83589 -0.28763,0.0575 -0.29943,0.015 -0.0908,-0.32754 0.0851,-0.1397 0.22779,-0.4826 0.31718,-0.762 0.15631,-0.48859 0.16252,-0.87523 0.16252,-10.11767 0,-9.37452 -0.004,-9.62179 -0.16866,-10.10519 -0.0928,-0.27255 -0.29146,-0.639 -0.44155,-0.81435 -0.15009,-0.17534 -0.24882,-0.34288 -0.2194,-0.3723 0.0294,-0.0294 0.22267,-0.0535 0.42944,-0.0535 0.7908,0 1.92289,-0.32781 3.13688,-0.90833 0.43415,-0.20761 0.80506,-0.36178 0.82424,-0.3426 0.0192,0.0192 -0.0217,0.35611 -0.0908,0.74873 -0.1067,0.60633 -0.12565,2.35357 -0.12574,11.59826 l -1.2e-4,10.88439 0.18407,0.54561 c 0.14475,0.42908 0.28788,0.64949 0.67013,1.03202 0.26734,0.26752 0.50321,0.53422 0.52416,0.59266 0.0713,0.19891 -0.11208,0.39922 -0.93608,1.02249 -1.14381,0.86517 -1.2055,0.89319 -1.60937,0.73105 z m -35.928774,-0.56482 c -0.53455,-0.50988 -1.00279,-1.33299 -1.16107,-2.04102 -0.0985,-0.44069 -0.28497,-0.66447 -0.61385,-0.7367 -0.13487,-0.0296 -0.24522,-0.0638 -0.24522,-0.076 0,-0.0121 0.12383,-0.26629 0.27517,-0.56477 l 0.27517,-0.54269 0.0238,-6.731 c 0.0262,-7.42922 0.0551,-6.98571 -0.5029,-7.71241 -0.28782,-0.37482 -0.20295,-0.49808 0.34791,-0.5053 0.87067,-0.0114 1.75465,-0.26421 2.93486,-0.83932 0.53658,-0.26147 0.99233,-0.44835 1.01276,-0.41529 0.0204,0.0331 0.002,0.15147 -0.04,0.26312 -0.0789,0.20761 -0.20913,1.37745 -0.19572,1.75854 0.004,0.11641 -0.0325,0.36406 -0.0812,0.55033 -0.0587,0.22432 -0.0851,2.68279 -0.0783,7.28133 0.01,6.43445 0.0215,6.97366 0.16158,7.366 0.23798,0.66642 0.39091,0.90341 0.85365,1.32291 0.23757,0.21536 0.43194,0.43946 0.43194,0.498 0,0.14675 -0.47717,0.58328 -1.07038,0.9792 -0.79085,0.52784 -1.02116,0.62889 -1.43326,0.62889 -0.35596,0 -0.429,-0.0395 -0.89488,-0.48387 z m -1.5968,-20.18877 c 0,-0.0499 0.1197,-0.22701 0.26601,-0.39364 0.14631,-0.16664 0.36029,-0.51456 0.47553,-0.77318 0.18921,-0.42463 0.20508,-0.54655 0.16383,-1.25794 -0.0452,-0.77956 -0.0435,-0.78857 0.16499,-0.86783 0.45504,-0.17301 2.43983,-0.035 2.57528,0.17905 0.24388,0.38544 -0.21053,1.65106 -0.77801,2.16688 -0.31214,0.28373 -1.00088,0.65205 -1.51297,0.80909 -0.59663,0.18297 -1.35466,0.25995 -1.35466,0.13757 z m 10.96391,-7.03452 c 0.0339,-0.10478 0.0807,-0.733 0.10393,-1.39606 0.0374,-1.06622 0.0261,-1.21174 -0.0973,-1.25912 -0.15933,-0.0611 -1.0288,0.48801 -1.95351,1.23384 -0.99186,0.79999 -1.0834,0.84984 -1.56065,0.84984 -0.45904,0 -0.92169,-0.19439 -2.04918,-0.86098 -0.6943,-0.41048 -1.47259,-1.2123 -1.854,-1.91004 -0.30593,-0.55966 -0.54329,-0.7181 -0.95725,-0.63897 -0.27931,0.0534 -0.28007,0.005 -0.007,-0.46093 0.33726,-0.57548 0.40665,-1.67726 0.41212,-6.543079 0.006,-5.21458 -0.005,-5.30454 -0.7542,-6.31627 -0.12829,-0.17322 -0.0301,-0.21035 0.86632,-0.32749 0.46236,-0.0604 0.92012,-0.1524 1.01726,-0.20438 0.0971,-0.052 0.23965,-0.0945 0.31669,-0.0945 0.43377,0 2.62031,-1.27975 3.88595,-2.27438 0.87711,-0.68929 1.31937,-0.94296 1.644,-0.94296 0.32226,0 1.40289,0.48219 2.13045,0.95062 0.57165,0.36806 1.36674,1.21199 1.82411,1.93617 0.33448,0.5296 0.35172,0.54281 0.74084,0.56802 0.21911,0.0142 0.39838,0.0455 0.39838,0.0696 0,0.0241 -0.10477,0.22202 -0.23283,0.43986 l -0.23284,0.39607 v 7.422599 7.42259 l 0.27517,0.39038 c 0.15134,0.21471 0.27517,0.40832 0.27517,0.43024 0,0.0219 -0.10565,0.0399 -0.23478,0.0399 -0.20961,0 -1.36657,0.2726 -2.12153,0.49987 -0.15508,0.0467 -0.60051,0.23906 -0.98983,0.42751 -0.82383,0.39875 -0.93138,0.41811 -0.84528,0.15212 z m -0.70912,-2.93843 c 0.2078,-0.13764 0.47151,-0.41387 0.58601,-0.61383 l 0.2082,-0.36358 v -6.096 -6.095989 l -0.30666,-0.635 c -0.16866,-0.34925 -0.43536,-0.76505 -0.59267,-0.92399 -0.47977,-0.48477 -1.44269,-1.06518 -1.95877,-1.18068 -0.79983,-0.17899 -1.25627,0.0297 -1.6405,0.75 -0.15014,0.28146 -0.15807,0.60438 -0.15807,6.43466 v 6.138339 l 0.27989,0.54738 c 0.39315,0.76886 0.76924,1.19581 1.44633,1.64187 1.10344,0.72696 1.52079,0.80448 2.13624,0.39682 z m 36.940094,2.85376 c 0.13305,-0.64551 0.22119,-2.16193 0.13832,-2.37988 -0.14721,-0.3872 -0.29102,-0.31744 -1.89435,0.91885 -1.49497,1.15275 -1.73935,1.19952 -2.95755,0.56606 -0.43168,-0.22447 -0.89875,-0.4803 -1.03793,-0.56851 -0.68459,-0.43387 -1.36639,-1.17636 -1.74209,-1.89716 -0.24846,-0.47669 -0.52133,-0.65385 -0.80677,-0.52379 -0.34053,0.15515 -0.38963,0.0302 -0.14929,-0.37989 0.42033,-0.71725 0.45528,-1.19481 0.45469,-6.213179 -6.1e-4,-5.24178 -0.0424,-5.87839 -0.42126,-6.41597 -0.14043,-0.19927 -0.25533,-0.37534 -0.25533,-0.39126 0,-0.0159 0.19915,-0.0554 0.44256,-0.0877 1.78785,-0.23717 3.44908,-1.0359 5.3566,-2.5755 1.40082,-1.13063 1.86211,-1.24723 2.95492,-0.74692 1.17791,0.53926 2.16736,1.40199 2.88173,2.51264 0.3194,0.49658 0.38453,0.5529 0.66675,0.57661 0.34662,0.0291 0.38704,0.13417 0.19512,0.5071 -0.27157,0.52771 -0.30567,1.42 -0.30567,7.997639 0,7.31253 -0.0109,7.16328 0.56123,7.71888 0.33998,0.33019 0.31635,0.47105 -0.0794,0.47333 -0.35445,0.002 -1.52349,0.2167 -2.00583,0.36831 -0.68866,0.21645 -1.57747,0.61181 -1.65408,0.73578 -0.0271,0.0438 -0.12796,0.0797 -0.22417,0.0797 -0.15253,0 -0.16766,-0.0352 -0.1182,-0.27517 z m -0.71657,-2.83771 c 0.20716,-0.10136 0.37863,-0.29091 0.55402,-0.61246 l 0.254,-0.46566 v -5.97177 c 0,-6.510839 0.0335,-5.994649 -0.45516,-7.015509 -0.37654,-0.78665 -1.54866,-1.70672 -2.3571,-1.85024 -0.6671,-0.11843 -1.11882,0.003 -1.47373,0.3974 -0.16866,0.18724 -0.33126,0.4635 -0.36134,0.61389 -0.0301,0.1504 -0.0791,2.57988 -0.10899,5.39884 -0.0715,6.751439 -0.0137,7.285689 0.90138,8.321229 0.40162,0.4545 1.55662,1.24849 1.81902,1.25045 0.0953,7.2e-4 0.2304,0.0398 0.30025,0.087 0.15502,0.10457 0.52614,0.0433 0.92765,-0.15314 z m -53.844314,2.23354 c -0.11642,-0.0621 -0.51249,-0.26107 -0.88016,-0.44225 -0.71578,-0.35272 -1.84763,-1.36025 -2.08211,-1.85341 -0.0664,-0.1397 -0.1621,-0.31115 -0.21263,-0.381 -0.13145,-0.18173 -0.35815,-0.96676 -0.46455,-1.60867 -0.0502,-0.30268 -0.12031,-1.63618 -0.15586,-2.96333 -0.0673,-2.510659 -0.0748,-2.559169 -0.46806,-3.020569 -0.21832,-0.25612 -0.11223,-0.36617 0.35253,-0.36568 0.5761,6.1e-4 2.12807,-0.52846 3.12468,-1.06521 0.2894,-0.15586 0.54654,-0.25043 0.57144,-0.21015 0.0249,0.0403 0.006,0.31505 -0.0414,0.61059 -0.19793,1.22666 -0.25226,2.313619 -0.20037,4.008679 0.082,2.67828 0.24697,3.2346 1.25551,4.23334 0.62941,0.6233 1.35141,1.0449 1.92003,1.12117 0.54194,0.0727 1.11131,-0.3511 1.44863,-1.07822 0.16681,-0.35959 0.1769,-0.53083 0.18457,-3.13267 0.007,-2.46866 -0.009,-2.81336 -0.1546,-3.344949 -0.33775,-1.23021 -0.87439,-1.79021 -4.7862,-4.99454 -0.76786,-0.62898 -1.93325,-1.85817 -2.17768,-2.29688 -0.89828,-1.61229 -0.99377,-2.05677 -1.00738,-4.68891 -0.0149,-2.88025 -0.0751,-3.25713 -0.61219,-3.83117 -0.16276,-0.17396 -0.2982,-0.23283 -0.53567,-0.23283 -0.17481,0 -0.34108,-0.0376 -0.36949,-0.0836 -0.0692,-0.11195 1.02271,-0.80945 1.39633,-0.89197 0.16298,-0.036 0.65256,-0.0614 1.08794,-0.0564 0.62036,0.007 0.8718,0.0478 1.16233,0.18849 0.36113,0.17482 0.8824,0.72275 0.8824,0.92753 0,0.094 0.1774,0.54451 0.33362,0.84728 0.163,0.3159 0.38898,0.19537 2.24871,-1.19941 1.14286,-0.85714 1.16637,-0.86813 1.61476,-0.75522 0.29925,0.0753 2.01423,0.87528 3.19708,1.49123 0.13191,0.0687 0.44706,0.14925 0.70032,0.17902 0.45511,0.0535 0.4643,0.0501 0.78871,-0.29092 0.18052,-0.18978 0.35116,-0.32212 0.37918,-0.2941 0.028,0.028 0.0494,0.39703 0.0476,0.82001 -0.004,0.90666 -0.1958,1.44778 -0.73419,2.07146 -0.48297,0.55948 -1.49849,1.05294 -2.72928,1.32621 -0.52282,0.11608 -0.55373,0.1138 -0.73221,-0.0539 -0.109,-0.1024 -0.20948,-0.32928 -0.24207,-0.54656 -0.0731,-0.48776 -0.64964,-1.27071 -1.27674,-1.73398 -0.63985,-0.47269 -1.6388,-0.92368 -1.92482,-0.86901 -0.35171,0.0672 -0.87761,0.57918 -1.13637,1.10622 -0.22933,0.46709 -0.23779,0.53047 -0.23439,1.75459 0.004,1.37428 0.0526,1.60331 0.55212,2.59286 0.30231,0.59888 0.66286,1.12566 1.35338,1.97735 0.60485,0.74604 1.07364,1.18321 2.97871,2.77779 0.8171,0.68394 1.67638,1.45222 1.90951,1.7073 0.47936,0.52449 1.00999,1.42032 1.08983,1.83989 0.0294,0.15444 0.10515,0.38369 0.16834,0.50944 0.089,0.17709 0.11491,0.79188 0.11491,2.727359 0,2.32726 0.012,2.52946 0.17544,2.94637 0.0965,0.2462 0.26794,0.54497 0.381,0.66394 0.20129,0.2118 0.27039,0.4187 0.13984,0.4187 -0.80899,0 -2.53632,0.45334 -3.3228,0.87207 -0.59834,0.31856 -2.09302,1.30732 -2.83448,1.87506 -0.37253,0.28525 -0.78077,0.58394 -0.90719,0.66375 -0.27749,0.17519 -1.03057,0.19085 -1.33647,0.0278 z m 42.163994,-0.15446 c -1.6676,-0.94669 -2.42939,-1.62843 -2.86565,-2.56454 -0.16844,-0.36143 -0.52183,-0.65458 -0.73904,-0.61306 -0.27301,0.0522 -0.32795,-0.0516 -0.17961,-0.33926 0.35673,-0.69179 0.34934,-0.54125 0.37776,-7.698089 l 0.0273,-6.87242 -0.18901,-0.17608 c -0.10395,-0.0969 -0.25335,-0.17608 -0.332,-0.17608 -0.18218,0 -0.36584,-0.21716 -0.28892,-0.34161 0.0323,-0.0523 0.22608,-0.24929 0.43062,-0.43783 0.28084,-0.25886 0.3719,-0.40508 0.3719,-0.59719 0,-0.25799 -0.23111,-0.71591 -0.53057,-1.05127 -0.0905,-0.10133 -0.142,-0.22066 -0.11448,-0.26518 0.0275,-0.0445 0.30773,-0.10711 0.6227,-0.13908 0.59635,-0.0605 1.32244,-0.23755 1.75801,-0.42858 0.71013,-0.31144 1.2164,-0.55727 1.50123,-0.72896 0.17374,-0.10473 0.3416,-0.1647 0.37303,-0.13327 0.0314,0.0314 -0.009,0.21948 -0.0907,0.41789 -0.0978,0.23872 -0.16347,0.69626 -0.19403,1.35261 -0.0485,1.04243 0.0278,1.43531 0.30206,1.55481 0.0772,0.0336 0.61667,0.0893 1.19875,0.12359 0.58209,0.0343 1.12501,0.0898 1.2065,0.1233 0.17058,0.0701 0.19922,0.42386 0.0423,0.52295 -0.0582,0.0368 -0.6137,0.0557 -1.23444,0.042 -0.92706,-0.0204 -1.16596,-3.4e-4 -1.33779,0.11225 l -0.20919,0.13707 0.0303,6.57806 c 0.033,7.165209 0.002,6.692899 0.51,7.719969 0.30451,0.61536 1.18849,1.43409 1.96599,1.82087 1.33673,0.66497 1.3312,0.70654 -0.23527,1.76792 -0.76381,0.51752 -0.86218,0.56069 -1.27,0.55725 -0.33458,-0.003 -0.55528,-0.068 -0.90773,-0.26807 z"
       id="path1" /><text
       xml:space="preserve"
       style="font-style:italic;font-variant:normal;font-weight:normal;font-stretch:normal;font-size:5.40799px;font-family:'Trebuchet MS';-inkscape-font-specification:'Trebuchet MS, Italic';font-variant-ligatures:normal;font-variant-caps:normal;font-variant-numeric:normal;font-variant-east-asian:normal;fill:#e61a21;stroke:none;stroke-width:0"
       x="77.467224"
       y="147.5582"
       id="text1"
       inkscape:label="text1"><tspan
         sodipodi:role="line"
         id="tspan1"
         style="font-style:italic;font-variant:normal;font-weight:normal;font-stretch:normal;font-size:5.40799px;font-family:'Trebuchet MS';-inkscape-font-specification:'Trebuchet MS, Italic';font-variant-ligatures:normal;font-variant-caps:normal;font-variant-numeric:normal;font-variant-east-asian:normal;stroke:none;stroke-width:0"
         x="77.467224"
         y="147.5582">BREWING MONKS CO.</tspan></text></g></svg>
