<?xml version="1.0" encoding="UTF-8" standalone="no"?>
<!-- Created with Inkscape (http://www.inkscape.org/) -->

<svg
   width="102.66428mm"
   height="27.41831mm"
   viewBox="0 0 102.66428 27.41831"
   version="1.1"
   id="svg1"
   xml:space="preserve"
   inkscape:version="1.3.2 (091e20e, 2023-11-25, custom)"
   sodipodi:docname="logoDiablaLargo.svg"
   xmlns:inkscape="http://www.inkscape.org/namespaces/inkscape"
   xmlns:sodipodi="http://sodipodi.sourceforge.net/DTD/sodipodi-0.dtd"
   xmlns="http://www.w3.org/2000/svg"
   xmlns:svg="http://www.w3.org/2000/svg"><sodipodi:namedview
     id="namedview1"
     pagecolor="#ffffff"
     bordercolor="#000000"
     borderopacity="0.25"
     inkscape:showpageshadow="2"
     inkscape:pageopacity="0.0"
     inkscape:pagecheckerboard="0"
     inkscape:deskcolor="#d1d1d1"
     inkscape:document-units="mm"
     inkscape:zoom="1.3843855"
     inkscape:cx="197.92175"
     inkscape:cy="81.263491"
     inkscape:window-width="2048"
     inkscape:window-height="991"
     inkscape:window-x="-9"
     inkscape:window-y="-9"
     inkscape:window-maximized="1"
     inkscape:current-layer="layer1" /><defs
     id="defs1" /><g
     inkscape:label="Capa 1"
     inkscape:groupmode="layer"
     id="layer1"
     transform="translate(-57.247123,-85.773966)"><path
       style="fill:#e61a21;fill-opacity:1;stroke:none;stroke-width:1.00971"
       d="m 134.96431,86.862008 c 0.93742,1.353223 0.77718,2.921921 0.77718,4.507604 v 6.994549 c 0,1.665149 0.11975,3.192429 -0.54403,4.740749 0.84424,0.003 1.09068,0.65401 1.59039,1.24227 0.47887,0.56371 1.5236,1.23694 2.29548,1.21655 0.69148,-0.0183 1.32931,-0.79258 1.86521,-1.15735 1.11567,-0.75943 2.27727,-1.35081 3.65271,-1.37919 l -0.69249,-3.030969 0.0263,-4.35217 0.66618,-2.64238 c -0.76937,0.08815 -0.84983,-0.44801 -1.32455,-0.929552 -0.57724,-0.585512 -1.34064,-1.245328 -2.17273,-1.40664 -1.1666,-0.226165 -1.7975,1.394725 -2.87554,1.403581 0,-2.070728 -0.17783,-4.266188 0.31087,-6.295094 l -3.575,1.088042 m 13.60053,-1.010324 c -0.68695,0.390938 -1.4787,0.697543 -2.25381,0.85459 -0.18727,0.03795 -0.80964,0.0058 -0.89512,0.202627 -0.1049,0.241525 0.39416,0.840304 0.45448,1.118865 0.17487,0.807468 0.012,1.876582 0.049,2.720105 0.10506,2.39923 0.003,4.82594 0.003,7.2277 0,1.82814 0.16854,3.534249 -0.62174,5.207049 1.27271,0.0308 0.93386,2.70738 2.64238,2.27641 0.22362,-0.0564 0.42799,-0.16776 0.62174,-0.29019 0.23947,-0.15131 0.49075,-0.32737 0.68789,-0.53208 0.20854,-0.21656 0.24951,-0.42604 0.0646,-0.6739 -0.8174,-1.09561 -0.83018,-2.15968 -0.83018,-3.50034 V 90.048414 c 0,-1.009369 -0.0236,-2.021933 9.4e-4,-3.030973 0.009,-0.377381 0.20464,-0.808516 0.0766,-1.165757 m -39.40263,1.243475 0.62173,-0.07771 c 0.13365,0.419391 0.484,0.740691 0.58918,1.165761 0.31959,1.291665 0.11027,2.87145 0.11027,4.196728 v 8.004872 c 0,0.98733 -0.11113,2.06775 0.14981,3.03097 0.10123,0.37368 0.52152,0.83062 0.0833,1.08803 -0.10158,-0.5699 -0.46726,-1.04327 -0.53054,-1.63205 -0.33412,-3.109609 -0.0135,-6.429939 -0.0135,-9.559219 0,-1.579965 0.41742,-3.85938 -0.31087,-5.284773 -0.26025,0.0733 -0.55994,0.22947 -0.57544,0.544086 -0.0169,0.342494 0.33299,0.667066 0.39439,1.010258 0.12795,0.714977 0.0257,1.528269 0.0257,2.253797 v 6.683692 c 0,1.859999 0.10017,3.473079 -0.62173,5.207049 0.48536,0.006 1.31665,0.43024 1.06933,1.07485 -0.30522,0.79552 -0.98331,1.04278 -0.9916,2.03383 0.82411,-0.56115 1.61681,-0.89133 2.64238,-0.83864 0.65638,0.0337 1.54036,0.32974 2.17608,0.15358 0.84785,-0.23495 1.667,-1.14373 2.40924,-1.61941 0.97785,-0.62668 2.11407,-0.91028 3.26411,-0.95965 -0.19643,-0.41533 -0.55695,-0.79293 -0.66694,-1.24347 -0.16744,-0.68577 -0.0325,-1.54913 -0.0325,-2.2538 0,-1.630469 0.0388,-3.266259 -9.4e-4,-4.896189 -0.0543,-2.217247 -0.4008,-4.520579 0.46745,-6.605957 -0.87643,-0.003 -0.95787,-0.597879 -1.48474,-1.164625 -0.51862,-0.557887 -1.41009,-1.126255 -2.16798,-1.280053 -1.04425,-0.21191 -1.63911,1.473094 -2.55741,1.365806 -0.40142,-0.04691 -0.64929,-0.808888 -0.9542,-1.042888 -0.99311,-0.762131 -2.39783,-0.264976 -3.09435,0.645128 m -51.915077,-0.07771 c 0.888977,0.0081 1.030986,0.617498 1.142432,1.398913 0.204543,1.434196 -0.09291,2.799277 0.440937,4.196728 0.657,1.719858 2.4742,2.773708 3.779121,3.957758 0.537362,0.48759 1.230161,1.08378 1.475248,1.79331 0.393172,1.13824 0.53621,3.445699 0.116036,4.585319 -0.531901,1.44265 -1.893439,0.90681 -2.605148,-0.0848 -1.232795,-1.71742 -0.467705,-4.290259 -0.385047,-6.210429 l -3.341841,1.08804 c 1.550648,2.279529 -0.500862,5.738929 2.564669,7.362759 0.472381,0.25023 0.996173,0.57871 1.554344,0.46504 0.670234,-0.13649 1.3006,-0.87764 1.865215,-1.24551 1.122351,-0.7313 2.298979,-1.23939 3.652709,-1.29751 -0.197374,-0.43163 -0.514729,-0.7544 -0.596431,-1.24348 -0.253996,-1.52046 0.301584,-3.137689 -0.423246,-4.585319 -1.160084,-2.31689 -4.037057,-3.21746 -5.130778,-5.673351 -0.359241,-0.806649 -0.664481,-1.940294 -0.266374,-2.797812 0.706663,-1.52216 2.121397,-0.479341 2.808736,0.466295 0.202067,0.278004 0.215541,0.8213 0.585517,0.939446 0.337191,0.107676 0.76829,-0.104565 1.079645,-0.213302 1.548891,-0.540892 1.984013,-1.707857 1.865214,-3.213092 -0.218145,0.184232 -0.389957,0.515153 -0.678464,0.595714 -1.11545,0.311482 -2.235764,-1.44382 -3.362832,-1.182853 -0.748782,0.173379 -1.482191,1.472562 -2.237189,1.429079 -0.31842,-0.01833 -0.545051,-0.898951 -0.801099,-1.111369 -0.835672,-0.69328 -2.624538,-0.420439 -3.101374,0.580298 m 56.811297,0.887691 c 1.18082,-0.11068 2.17753,1.438896 2.25182,2.45415 0.25021,3.419276 0.0797,6.905536 0.0797,10.336395 0,1.01452 0.3332,3.47743 -1.08804,3.66871 -1.25837,0.16937 -2.14219,-1.48596 -2.2406,-2.50297 -0.32688,-3.377739 -0.0132,-6.941259 -0.0132,-10.33638 0,-0.947858 -0.39734,-3.487961 1.01033,-3.619905 m 6.3728,2.45415 v 0.466307 c 1.15873,-0.02656 3.73484,-0.933863 2.90637,-2.61769 -0.162,-0.329246 -1.91351,-0.302175 -2.16002,-0.05552 -0.25618,0.256345 -0.0422,0.730041 -0.0635,1.041143 -0.0324,0.471829 -0.32012,0.88582 -0.68285,1.165763 m -32.019487,-0.388587 0.520149,1.086905 -0.520149,1.011459 c 0.914013,0.314222 0.544021,1.926096 0.544021,2.720106 0,2.78412 0.379595,5.725829 -0.388592,8.393469 0.66765,-0.1373 0.808402,0.43078 1.182311,0.85183 0.52452,0.59063 1.833349,1.67866 2.703551,1.47297 0.401358,-0.0949 1.685275,-0.72617 1.629185,-1.23167 -0.03753,-0.33792 -0.756568,-0.576 -1.007442,-0.73873 -0.628885,-0.40794 -1.085549,-0.96108 -1.313936,-1.67561 -0.32979,-1.03173 -0.162694,-2.272819 -0.162694,-3.341829 0,-2.07129 -0.104453,-4.1627 0.155434,-6.217384 l 1.865217,-0.155435 v -0.62174 c -0.470933,-0.05947 -1.4669,0.09703 -1.831514,-0.21312 -0.515233,-0.438306 -0.07931,-1.715501 -0.03373,-2.273831 -1.144417,0.32968 -2.105488,0.922382 -3.341843,0.93261 m 31.708629,1.554341 c 0.68884,1.390864 0.54403,2.735859 0.54403,4.274459 0,2.50058 0.37631,5.210459 -0.62174,7.538569 0.15275,-0.0425 0.40189,-0.17731 0.55932,-0.11124 0.23974,0.10067 0.26034,0.52579 0.35409,0.73298 0.36713,0.81133 1.03818,1.84757 2.03984,1.39615 0.34772,-0.15671 1.34251,-0.69643 1.24576,-1.16384 -0.0558,-0.26978 -0.33897,-0.42501 -0.4918,-0.6341 -0.21996,-0.30092 -0.35694,-0.78749 -0.41779,-1.15256 -0.22968,-1.37809 -0.10302,-2.879239 -0.10302,-4.274449 0,-2.57967 0.0306,-5.127079 0.23315,-7.694005 -1.14502,0.362336 -2.08276,1.062046 -3.34184,1.088036 M 81.494712,90.514678 c -1.081254,0.630968 -2.163977,0.7299 -3.341841,1.010318 0.803876,1.757949 0.699454,3.354095 0.699454,5.284775 0,1.54065 0.185656,3.215909 -0.03328,4.740759 -0.08436,0.58755 -0.349557,1.07234 -0.510738,1.63206 1.181775,0.0894 0.905548,2.83807 2.642386,2.24539 0.224848,-0.0768 0.427781,-0.20161 0.621738,-0.3366 0.225591,-0.15699 0.494952,-0.3227 0.674391,-0.53321 0.136911,-0.16063 0.169783,-0.32982 0.05444,-0.51375 -0.459342,-0.7325 -0.712111,-1.05247 -0.851292,-1.94989 -0.201917,-1.30192 -0.110698,-2.648549 -0.110698,-3.963559 0,-1.15174 -0.09591,-2.35079 0.0132,-3.49728 0.07149,-0.75119 0.07449,-2.134424 1.074847,-2.209971 1.229364,-0.0928 2.138828,1.581881 2.240547,2.598551 0.276669,2.76524 0.01326,5.690869 0.01326,8.471189 0,1.23248 -0.01369,2.49677 -1.165758,3.26411 0.279101,0.45459 0.637642,0.21401 1.010323,-0.015 0.997436,-0.61288 2.076517,-1.09979 3.264128,-1.15077 -0.09246,-0.5186 -0.448692,-0.95573 -0.527472,-1.47663 -0.198642,-1.31347 -0.01654,-2.78991 -0.01654,-4.119009 0,-2.36653 -0.181526,-4.65071 0.466303,-6.916834 -0.81751,-0.0028 -0.858617,-0.541032 -1.346745,-1.074846 -0.519231,-0.567823 -1.577602,-1.35877 -2.383687,-1.390394 -0.889819,-0.03494 -1.785823,1.164188 -2.564667,1.532632 l 0.07771,-1.632059 m -13.678232,2.720107 0.690999,1.010314 0.08617,2.95325 -0.02332,4.663039 -0.442977,1.32119 c 0.814445,-0.14159 0.952701,0.57451 1.413302,1.08692 0.510601,0.56801 1.404946,1.12967 2.16169,1.28178 0.995537,0.20012 1.933764,-1.14099 2.79782,-1.5138 l -0.233151,2.17608 c 1.179463,-0.49106 2.273775,-0.95447 3.574993,-1.01032 -0.179136,-0.47249 -0.622782,-0.83124 -0.744611,-1.32119 -0.249026,-1.00151 -0.03256,-2.3097 -0.03256,-3.34185 0,-2.408819 -0.412266,-5.196339 0.466303,-7.460853 -0.801845,0.0094 -0.853099,-0.460083 -1.335583,-1.010326 -0.520396,-0.593478 -1.417649,-1.314292 -2.239408,-1.390696 -1.112843,-0.103466 -2.269006,1.241481 -3.186407,1.772267 -0.949094,0.549131 -1.929851,0.540429 -2.953255,0.784195 m 26.035276,0 c 1.015893,1.460724 0.679171,3.165444 0.699752,4.896184 0.02023,1.69891 0.35618,3.409849 -0.466601,4.973899 0.862423,0.003 0.961305,0.6032 1.483885,1.16545 0.514578,0.55366 1.34117,1.11211 2.091109,1.2803 1.175086,0.26356 1.756579,-1.44157 2.875525,-1.35772 l -0.31086,2.09838 3.57499,-1.08804 c -0.94861,-1.36399 -0.77717,-2.65901 -0.77717,-4.27445 0,-2.600369 -0.30313,-5.352699 0.4663,-7.849443 -0.78021,0.01496 -0.87529,-0.568415 -1.33558,-1.08774 -0.56608,-0.638694 -1.57967,-1.358427 -2.472558,-1.317837 -0.772637,0.03514 -1.407362,0.830681 -2.020647,1.233697 -1.15423,0.758506 -2.407034,1.298392 -3.808145,1.32732 m 30.85373,0 c 0.21831,0.311174 0.51745,0.570744 0.65569,0.932604 0.3412,0.8932 0.12149,2.16362 0.12149,3.10868 0,2.04997 0.0984,3.945389 -0.46631,5.906509 0.84148,-0.0564 0.91452,0.54291 1.4133,1.08493 0.53528,0.58166 1.57391,1.28305 2.39485,1.28742 0.84911,0.004 1.78649,-1.08721 2.48695,-1.51745 l -0.15544,2.17608 3.49728,-1.01032 c -0.14664,-0.49855 -0.54463,-0.89724 -0.66695,-1.39892 -0.25079,-1.02852 -0.0325,-2.36068 -0.0325,-3.41956 0,-2.470849 -0.21413,-4.943309 0.46631,-7.305413 -0.81751,-0.0028 -0.85861,-0.541032 -1.34674,-1.074846 -0.5117,-0.559583 -1.44866,-1.250983 -2.22826,-1.326237 -1.07638,-0.103889 -2.07838,1.115944 -2.95325,1.637702 -1.04452,0.622928 -2.05266,0.64877 -3.18641,0.918821 m 25.49126,0.0777 c 0.70959,1.62511 0.54402,3.29495 0.54402,5.05162 0,1.06965 0.11725,2.203793 -0.0225,3.264113 -0.0749,0.56828 -0.35983,1.07124 -0.44382,1.63208 0.83172,-0.21727 0.86649,0.37293 1.35063,0.91941 0.52858,0.59665 1.82787,1.58979 2.69067,1.37948 0.56751,-0.13834 1.08881,-0.73108 1.55433,-1.06711 0.15536,-0.11215 0.44791,-0.39917 0.65257,-0.24107 0.41505,0.32064 -0.0736,1.64035 -0.18626,2.04026 l 1.55434,-0.66642 2.02065,-0.42162 c -0.15064,-0.47273 -0.5493,-0.83933 -0.66695,-1.32119 -0.25662,-1.05104 -0.0325,-2.41505 -0.0325,-3.49728 0,-1.957543 -0.3134,-4.215013 0.036,-6.139673 0.0758,-0.41778 0.3123,-0.76414 0.43021,-1.165757 -0.83563,-0.0028 -0.92462,-0.607352 -1.4223,-1.162644 -0.4788,-0.534249 -1.41813,-1.177698 -2.15269,-1.2382 -0.99177,-0.08169 -1.80111,0.916698 -2.56468,1.414203 -1.08519,0.707082 -2.11652,0.917929 -3.34183,1.219798 M 98.359303,92.366149 c 0.913545,0.09248 1.769837,1.125672 1.980647,1.956722 0.52125,2.05493 0.11771,4.64584 0.11771,6.761409 0,0.87822 0.14979,2.73907 -1.165751,2.69761 -0.910715,-0.0287 -1.748519,-1.03808 -1.974416,-1.84273 -0.247449,-0.88145 -0.123952,-1.89138 -0.123952,-2.797819 0,-1.35584 -0.115244,-2.76948 0.01321,-4.11901 0.06875,-0.72242 0.0029,-2.772582 1.152564,-2.656182 m -26.346143,0.0417 c 1.023421,-0.183445 1.990107,0.918082 2.306331,1.759602 0.272834,0.72607 0.18062,1.64541 0.18062,2.40924 v 4.429889 c 0,0.78978 0.215113,2.56479 -0.854949,2.77076 -0.97927,0.18851 -2.00367,-0.91719 -2.224894,-1.76045 -0.551864,-2.103539 -0.184281,-4.666509 -0.184281,-6.839109 0,-0.78599 -0.311605,-2.574785 0.777173,-2.769932 m 56.966778,-0.001 c 1.01137,-0.11443 1.99291,0.964822 2.26119,1.838402 0.22592,0.73567 0.0706,1.50529 0.0703,2.2538 v 4.507609 c 0,0.78865 0.31245,2.67505 -0.8549,2.78001 -1.04109,0.0936 -1.9709,-0.9451 -2.23754,-1.84741 -0.21325,-0.72162 -0.094,-1.58535 -0.094,-2.331519 v -4.42988 c 0,-0.7988 -0.30464,-2.63981 0.85494,-2.771012 m 10.02578,0.01707 c 0.97299,-0.315777 2.057,0.877747 2.36078,1.665882 0.30883,0.80128 0.20359,1.72309 0.20359,2.56466 v 4.429889 c 0,0.79359 0.19461,2.35309 -0.77837,2.66649 -1.00323,0.32313 -2.00189,-0.82469 -2.31252,-1.65617 -0.31771,-0.85044 -0.25096,-1.82713 -0.25096,-2.720099 v -4.27445 c 2.8e-4,-0.7454 -0.11653,-2.38607 0.77748,-2.676202 m 15.31005,-0.01413 c 0.97611,-0.05493 1.85037,0.999402 2.0874,1.835402 0.26941,0.95028 0.16634,1.97208 0.16634,2.95326 0,1.29748 0.0778,2.58615 0.0778,3.885869 0,0.87325 0.0866,2.58876 -1.08805,2.70019 -0.93697,0.0888 -1.76087,-1.10566 -2.07012,-1.84531 -0.29705,-0.71047 -0.18369,-1.65521 -0.18369,-2.409229 v -4.5076 c 0,-0.82433 -0.18873,-2.545113 1.01041,-2.612582"
       id="path6590"
       sodipodi:nodetypes="csscsssccccssccccssscsccsscssccccsssscsscsssscscssscssccssssccssssscccssscssssssccssssccssssscccsssccccscscsssscccccccsccssssssccccsscssssssscsscccsscsccccccccsscccsscsssccscsscccscsssccsscsccccsscsssccsscsssscccssscsssccsscsssccssssssccscsssssccsssssscccsssssssc" /><g
       inkscape:label="Capa 1"
       id="layer1-1"
       transform="translate(-92.356253,-43.605753)"><path
         d="m 175.74136,156.73195 0.68392,-3.86851 q 0.39345,-0.0581 0.72617,-0.0581 1.3652,0 1.3652,0.91102 0,0.30103 -0.21653,0.55717 -0.21389,0.2535 -0.507,0.29047 0.64431,0.11883 0.64431,0.88725 0,0.65487 -0.45947,0.98495 -0.45682,0.32743 -1.45762,0.32743 -0.2799,0 -0.77898,-0.0317 z m 1.15395,-3.44601 -0.17428,1.07209 q 0.22973,0.0185 0.37233,0.0185 0.8846,0 0.8846,-0.67864 0,-0.4357 -0.68656,-0.4357 -0.12939,0 -0.39609,0.0238 z m -0.26406,1.51307 -0.26406,1.48403 q 0.14523,0.0264 0.31951,0.0264 0.52548,0 0.86348,-0.20861 0.34064,-0.21125 0.34064,-0.5915 0,-0.72881 -0.92685,-0.72881 -0.15316,0 -0.33272,0.0185 z m 4.14313,1.93294 -0.60734,-1.66095 q -0.20333,0 -0.55717,-0.0264 l -0.29575,1.68736 h -0.55453 l 0.68128,-3.86851 q 0.10826,-0.003 0.42514,-0.0211 0.31951,-0.0185 0.52284,-0.0185 0.61262,0 0.9427,0.21917 0.33272,0.21917 0.33272,0.62847 0,0.48323 -0.28783,0.84764 -0.28518,0.36176 -0.71825,0.45947 l 0.72089,1.75337 z m -0.86348,-3.3932 -0.22181,1.25694 q 0.1954,0.0264 0.36704,0.0264 0.47003,0 0.75522,-0.1954 0.28783,-0.19541 0.28783,-0.53605 0,-0.31423 -0.20069,-0.44627 -0.20069,-0.13203 -0.67072,-0.13203 -0.10034,0 -0.31687,0.0264 z m 3.08688,0 -0.19012,1.07473 h 1.27806 l -0.0792,0.44891 h -1.27806 l -0.24558,1.39425 h 1.75337 l -0.0845,0.47531 h -2.3079 l 0.68392,-3.86851 h 2.33695 l -0.0871,0.47531 z m 4.75312,3.44601 h -0.16636 l -0.44626,-2.61157 -1.33616,2.61157 h -0.16636 l -0.52812,-3.92132 h 0.54925 l 0.31423,2.61421 1.31239,-2.61421 h 0.18484 l 0.38817,2.60101 1.21469,-2.60101 h 0.57566 z m 1.67151,-0.0528 0.68392,-3.86851 h 0.53869 l -0.68392,3.86851 z m 3.95565,0.0528 -1.51043,-2.74625 -0.45419,2.69344 h -0.52812 l 0.68392,-3.86851 h 0.21125 l 1.47874,2.63534 0.44627,-2.63534 h 0.52284 l -0.69184,3.92132 z m 4.17218,-3.76552 -0.15844,0.50435 q -0.338,-0.25086 -0.73409,-0.25086 -0.71033,0 -1.16451,0.54925 -0.45419,0.54925 -0.45419,1.38369 0,1.11698 1.05361,1.11698 0.4225,0 0.72881,-0.2535 l 0.16108,-0.90573 h -0.53605 l 0.0792,-0.44891 h 1.06417 l -0.29839,1.68472 q -0.54661,0.39873 -1.39161,0.39873 -1.42329,0 -1.42329,-1.48931 0,-1.1117 0.63111,-1.81146 0.63111,-0.69977 1.65039,-0.69977 0.57037,0 0.79218,0.22182 z m 5.20994,3.71271 -0.0528,-2.3924 -1.28598,2.44521 h -0.13203 l -0.41722,-2.46634 -0.89253,2.41353 h -0.50172 l 1.37841,-3.86851 h 0.2667 l 0.41986,2.71456 1.36256,-2.71456 h 0.27726 l 0.10827,3.86851 z m 1.12491,-1.42066 q 0,-1.01928 0.54396,-1.76657 0.54397,-0.74994 1.41274,-0.74994 0.66807,0 1.01663,0.36441 0.35121,0.3644 0.35121,1.04832 0,1.12755 -0.55189,1.859 -0.54925,0.73145 -1.52364,0.73145 -0.58358,0 -0.9163,-0.41193 -0.33271,-0.41458 -0.33271,-1.07474 z m 0.56245,-0.0739 q 0,0.50171 0.19804,0.79482 0.20069,0.29047 0.57302,0.29047 0.65751,0 1.04304,-0.60998 0.38818,-0.60999 0.38818,-1.4497 0,-0.99552 -0.85557,-0.99552 -0.59149,0 -0.9691,0.64696 -0.37761,0.64431 -0.37761,1.32295 z m 5.42911,1.5474 -1.51043,-2.74625 -0.45419,2.69344 h -0.52812 l 0.68392,-3.86851 h 0.21125 l 1.47875,2.63534 0.44626,-2.63534 h 0.52284 l -0.69184,3.92132 z m 3.09745,-0.0528 -0.74994,-1.77978 -0.64431,0.73145 -0.18484,1.04833 h -0.53341 l 0.68128,-3.86851 h 0.53341 l -0.34856,2.00159 1.75865,-2.00159 h 0.61527 l -1.45235,1.67679 0.93478,2.19172 z m 1.04833,-0.12411 0.15844,-0.507 q 0.11354,0.0898 0.338,0.15315 0.22709,0.0634 0.4357,0.0634 0.31423,0 0.50436,-0.15316 0.19012,-0.15315 0.19012,-0.4225 0,-0.22445 -0.14523,-0.39609 -0.1426,-0.17164 -0.49116,-0.4225 -0.34592,-0.25086 -0.50436,-0.46739 -0.15843,-0.21653 -0.15843,-0.54132 0,-0.52285 0.33007,-0.8186 0.33272,-0.29839 0.8582,-0.29839 0.59414,0 0.78955,0.10299 l -0.15052,0.51228 q -0.0739,-0.0607 -0.24821,-0.11355 -0.17428,-0.0528 -0.3248,-0.0528 -0.338,0 -0.53341,0.15315 -0.1954,0.15316 -0.1954,0.44099 0,0.12147 0.0607,0.23501 0.0634,0.11355 0.169,0.20597 0.10563,0.0898 0.43306,0.33536 0.33008,0.24558 0.48324,0.50172 0.15579,0.2535 0.15579,0.5915 0,0.52548 -0.35384,0.80803 -0.3512,0.2799 -0.9295,0.2799 -0.20596,0 -0.46475,-0.0581 -0.25878,-0.0581 -0.40665,-0.13203 z m 7.17984,-3.68631 -0.14523,0.51492 q -0.22181,-0.169 -0.62583,-0.169 -0.62319,0 -1.05097,0.62319 -0.42514,0.62055 -0.42514,1.34143 0,1.09058 0.90574,1.09058 0.46739,0 0.90837,-0.38289 l -0.0423,0.55981 q -0.3248,0.29839 -1.00608,0.29839 -0.63374,0 -0.97967,-0.39081 -0.34592,-0.39081 -0.34592,-1.07737 0,-1.06153 0.57566,-1.79562 0.57829,-0.73674 1.49195,-0.73674 0.45947,0 0.73937,0.12411 z m 0.35649,2.38976 q 0,-1.01928 0.54396,-1.76657 0.54397,-0.74994 1.41274,-0.74994 0.66807,0 1.01663,0.36441 0.35121,0.3644 0.35121,1.04832 0,1.12755 -0.55189,1.859 -0.54925,0.73145 -1.52364,0.73145 -0.58358,0 -0.9163,-0.41193 -0.33271,-0.41458 -0.33271,-1.07474 z m 0.56245,-0.0739 q 0,0.50171 0.19804,0.79482 0.20069,0.29047 0.57302,0.29047 0.65751,0 1.04304,-0.60998 0.38818,-0.60999 0.38818,-1.4497 0,-0.99552 -0.85557,-0.99552 -0.59149,0 -0.9691,0.64696 -0.37761,0.64431 -0.37761,1.32295 z m 3.61237,0.75257 q 0.16372,0 0.2799,0.11619 0.11619,0.11619 0.11619,0.27991 0,0.16371 -0.11619,0.28254 -0.11618,0.11619 -0.2799,0.11619 -0.16372,0 -0.27991,-0.11619 -0.11618,-0.11883 -0.11618,-0.28254 0,-0.16372 0.11618,-0.27991 0.11619,-0.11619 0.27991,-0.11619 z"
         id="text1"
         style="font-style:italic;font-size:5.40799px;font-family:'Trebuchet MS';-inkscape-font-specification:'Trebuchet MS, Italic';fill:#e61a21;stroke-width:0"
         inkscape:label="text1"
         aria-label="BREWING MONKS CO." /></g></g></svg>
