<?xml version="1.0" encoding="UTF-8" standalone="no"?>
<!-- Created with Inkscape (http://www.inkscape.org/) -->

<svg
   width="1600mm"
   height="900mm"
   viewBox="0 0 1600 899.99999"
   version="1.1"
   id="svg1"
   xml:space="preserve"
   inkscape:version="1.3.2 (091e20e, 2023-11-25, custom)"
   sodipodi:docname="logoDiablafondoPro.svg"
   inkscape:export-filename="logoDiablaFondo.png"
   inkscape:export-xdpi="96"
   inkscape:export-ydpi="96"
   xmlns:inkscape="http://www.inkscape.org/namespaces/inkscape"
   xmlns:sodipodi="http://sodipodi.sourceforge.net/DTD/sodipodi-0.dtd"
   xmlns:xlink="http://www.w3.org/1999/xlink"
   xmlns="http://www.w3.org/2000/svg"
   xmlns:svg="http://www.w3.org/2000/svg"><sodipodi:namedview
     id="namedview1"
     pagecolor="#0000a6"
     bordercolor="#000000"
     borderopacity="0.25"
     inkscape:showpageshadow="2"
     inkscape:pageopacity="0.0"
     inkscape:pagecheckerboard="0"
     inkscape:deskcolor="#d1d1d1"
     inkscape:document-units="mm"
     inkscape:zoom="0.12236355"
     inkscape:cx="2995.1731"
     inkscape:cy="2308.6941"
     inkscape:window-width="2048"
     inkscape:window-height="991"
     inkscape:window-x="-9"
     inkscape:window-y="-9"
     inkscape:window-maximized="1"
     inkscape:current-layer="layer1"
     inkscape:export-bgcolor="#0000a6ff" /><defs
     id="defs1" /><g
     inkscape:label="Capa 1"
     inkscape:groupmode="layer"
     id="layer1"
     transform="translate(-57.247123,-85.773966)"><g
       id="use1"
       transform="rotate(-43.662311,234.81685,487.51405)"
       inkscape:tile-cx="101.25683"
       inkscape:tile-cy="86.227826"
       inkscape:tile-w="438.25692"
       inkscape:tile-h="390.21166"
       inkscape:tile-x0="-117.87163"
       inkscape:tile-y0="-108.878"><path
         style="fill:#f6e6db;fill-opacity:1;stroke:none;stroke-width:5.0928"
         d="m 534.85667,155.62787 c 4.72818,6.82541 3.91996,14.73765 3.91996,22.73554 v 35.27928 c 0,8.39873 0.604,16.10206 -2.74399,23.91151 4.25819,0.0151 5.50119,3.29871 8.02164,6.26579 2.41534,2.84326 7.68477,6.23891 11.578,6.13607 3.4877,-0.0923 6.70481,-3.99764 9.40779,-5.83747 5.62724,-3.83043 11.48615,-6.81325 18.42363,-6.95639 l -3.4928,-15.28768 0.13265,-21.95158 3.3601,-13.3277 c -3.88057,0.44436 -4.2864,-2.25969 -6.6808,-4.68849 -2.9115,-2.95321 -6.76195,-6.28123 -10.95887,-7.09484 -5.88412,-1.14077 -9.06627,7.03472 -14.50372,7.07941 0,-10.4444 -0.89694,-21.51792 1.56798,-31.75133 l -18.03167,5.48788 m 68.59868,-5.09592 c -3.46486,1.97183 -7.45831,3.51832 -11.36782,4.3104 -0.94456,0.19116 -4.08369,0.0303 -4.51483,1.02203 -0.5291,1.21823 1.98807,4.23832 2.29232,5.64338 0.88201,4.07269 0.0605,9.46514 0.24714,13.71971 0.52991,12.10129 0.0151,24.34119 0.0151,36.45524 0,9.22082 0.85009,17.82614 -3.13594,26.26345 6.41932,0.15535 4.71022,13.65555 13.3277,11.48181 1.1279,-0.28447 2.1587,-0.84615 3.13594,-1.46367 1.20785,-0.76318 2.47526,-1.6512 3.4696,-2.68372 1.05184,-1.09229 1.25848,-2.14887 0.32583,-3.39903 -4.12282,-5.52606 -4.18728,-10.89305 -4.18728,-17.6551 v -52.52694 c 0,-5.09108 -0.11903,-10.19826 0.005,-15.28768 0.0454,-1.90343 1.03217,-4.07803 0.38636,-5.87988 m -198.73993,6.27189 3.13589,-0.39191 c 0.67411,2.11533 2.44121,3.73591 2.97172,5.87989 1.61196,6.51491 0.55619,14.48309 0.55619,21.16757 v 40.37516 c 0,4.97991 -0.56052,10.42936 0.75561,15.28768 0.51059,1.88477 2.63046,4.1895 0.42015,5.48783 -0.51235,-2.87448 -2.35678,-5.26207 -2.67595,-8.23178 -1.68524,-15.68432 -0.0681,-32.43148 -0.0681,-48.21502 0,-7.96904 2.10539,-19.46603 -1.56797,-26.65545 -1.31266,0.36971 -2.82424,1.15741 -2.90242,2.74424 -0.0852,1.72751 1.67954,3.36459 1.98923,5.09558 0.64536,3.60623 0.12963,7.70832 0.12963,11.36777 v 33.71136 c 0,9.38151 0.50524,17.5176 -3.1359,26.26344 2.44807,0.0303 6.64095,2.17005 5.39351,5.42135 -1.53947,4.01247 -4.95964,5.2596 -5.00145,10.25828 4.15666,-2.83034 8.1549,-4.49571 13.3277,-4.22995 3.31066,0.16998 7.7693,1.66315 10.97576,0.77463 4.27641,-1.18504 8.40806,-5.76877 12.15178,-8.16802 4.93211,-3.16086 10.663,-4.59129 16.4636,-4.8403 -0.99076,-2.09485 -2.80916,-3.9994 -3.36393,-6.27185 -0.84453,-3.4589 -0.16392,-7.81354 -0.16392,-11.36777 0,-8.2238 0.1957,-16.47444 -0.005,-24.69552 -0.27388,-11.18342 -2.02157,-22.80101 2.35773,-33.3193 -4.42056,-0.0151 -4.83132,-3.0156 -7.48876,-5.87414 -2.61583,-2.8139 -7.11225,-5.68065 -10.93491,-6.45634 -5.26702,-1.06884 -8.26739,7.43 -12.89913,6.88885 -2.02469,-0.23655 -3.2749,-4.0799 -4.81282,-5.26015 -5.00907,-3.84405 -12.09423,-1.33646 -15.60735,3.25392 m -261.85048,-0.3919 c 4.48381,0.0403 5.20008,3.11456 5.76222,7.05585 1.03166,7.23385 -0.46858,14.11908 2.22402,21.16757 3.31379,8.67467 12.47943,13.9901 19.06122,19.96224 2.71035,2.45932 6.20471,5.4664 7.4409,9.04514 1.98308,5.74109 2.70455,17.37951 0.58523,23.12755 -2.68281,7.27647 -9.55018,4.57379 -13.13992,-0.42772 -6.21797,-8.66236 -2.35899,-21.63931 -1.94207,-31.32431 l -16.85565,5.48788 c 7.82115,11.49755 -2.5263,28.94615 12.93569,37.13647 2.38265,1.26211 5.02456,2.91891 7.83987,2.34558 3.38052,-0.68844 6.56,-4.42667 9.40779,-6.28214 5.66094,-3.68855 11.59565,-6.25126 18.42363,-6.54441 -0.9955,-2.17706 -2.59621,-3.80506 -3.00829,-6.27189 -1.28108,-7.66894 1.52116,-15.82596 -2.13475,-23.12755 -5.85129,-11.68599 -20.36222,-16.2283 -25.87875,-28.61538 -1.81194,-4.0686 -3.35152,-9.78648 -1.34358,-14.11166 3.56432,-7.67751 10.69997,-2.41771 14.1668,2.35188 1.0192,1.40224 1.08714,4.1425 2.95325,4.73842 1.70073,0.54307 3.87512,-0.52743 5.44552,-1.07584 7.81233,-2.72821 10.007,-8.61415 9.40784,-16.20631 -1.10031,0.92927 -1.96689,2.59837 -3.42208,3.0047 -5.62614,1.57105 -11.27678,-7.28237 -16.96153,-5.96608 -3.77671,0.87444 -7.4759,7.42733 -11.28399,7.20797 -1.60605,-0.0923 -2.74913,-4.53414 -4.04061,-5.6055 -4.21497,-3.49678 -13.23771,-2.12063 -15.64276,2.92688 m 286.54615,4.47735 c 5.95585,-0.55825 10.98308,7.25756 11.35778,12.3783 1.26202,17.24625 0.402,34.83033 0.402,52.13498 0,5.11707 1.6806,17.53955 -5.48789,18.50433 -6.34699,0.85427 -10.80483,-7.49492 -11.30119,-12.62454 -1.64872,-17.03672 -0.0666,-35.01049 -0.0666,-52.13488 0,-4.78084 -2.00411,-17.59266 5.09593,-18.25819 m 32.14328,12.3783 v 2.35199 c 5.84443,-0.13417 18.83788,-4.71023 14.65922,-13.20317 -0.8171,-1.66063 -9.65141,-1.52409 -10.89476,-0.27993 -1.29213,1.29298 -0.21285,3.68219 -0.32028,5.25132 -0.16342,2.37983 -1.61463,4.46793 -3.44418,5.87994 m -161.50062,-1.95998 2.62354,5.48219 -2.62354,5.10157 c 4.6101,1.58492 2.74394,9.71491 2.74394,13.71976 0,14.04261 1.91458,28.88008 -1.95998,42.33518 3.36751,-0.69251 4.07743,2.17278 5.96336,4.29648 2.64559,2.97904 9.2471,8.46687 13.63623,7.42941 2.02439,-0.47866 8.50021,-3.66268 8.2173,-6.21233 -0.18914,-1.70441 -3.816,-2.90524 -5.08135,-3.72602 -3.17196,-2.05758 -5.47532,-4.84752 -6.62728,-8.45149 -1.6634,-5.20386 -0.82058,-11.4637 -0.82058,-16.8556 0,-10.44722 -0.52683,-20.99593 0.78396,-31.35937 l 9.40784,-0.78401 v -3.13595 c -2.37529,-0.30011 -7.39878,0.48925 -9.23781,-1.07494 -2.59878,-2.21071 -0.39998,-8.65268 -0.16998,-11.4688 -5.77225,1.66285 -10.61972,4.65233 -16.85565,4.70392 m 159.9327,7.83982 c 3.47439,7.0153 2.74399,13.7992 2.74399,21.55963 0,12.61248 1.89804,26.28064 -3.13595,38.02322 0.77045,-0.21437 2.02706,-0.89432 2.82111,-0.56108 1.20921,0.50776 1.31311,2.65199 1.78597,3.69702 1.85174,4.09221 5.2364,9.31882 10.2886,7.04194 1.75383,-0.79042 6.77138,-3.51267 6.28339,-5.87021 -0.28145,-1.36072 -1.70971,-2.14367 -2.48055,-3.19829 -1.10944,-1.51778 -1.80035,-3.97196 -2.10726,-5.8133 -1.15847,-6.95085 -0.51962,-14.52238 -0.51962,-21.55958 0,-13.0114 0.15434,-25.86009 1.17597,-38.80718 -5.77528,1.82753 -10.50507,5.35674 -16.85565,5.48783 M 265.16541,174.0515 c -5.45369,3.1825 -10.91474,3.68149 -16.85566,5.09587 4.05458,8.86674 3.52791,16.91744 3.52791,26.65545 0,7.77077 0.93643,16.22049 -0.16796,23.91156 -0.4257,2.9635 -1.76312,5.4087 -2.57609,8.23183 5.96069,0.45092 4.56744,14.31472 13.32775,11.32535 1.13411,-0.38737 2.15765,-1.01689 3.13595,-1.69775 1.13784,-0.79183 2.49644,-1.62764 3.40151,-2.68942 0.69055,-0.81019 0.85634,-1.66355 0.27438,-2.59126 -2.31688,-3.6946 -3.59176,-5.30848 -4.29381,-9.83491 -1.0184,-6.56665 -0.5583,-13.35882 -0.5583,-19.99149 0,-5.80918 -0.4837,-11.85698 0.0666,-17.63967 0.36063,-3.78887 0.37577,-10.76564 5.4213,-11.1467 6.20073,-0.46807 10.78789,7.97872 11.30094,13.10663 1.39548,13.94738 0.0671,28.70375 0.0671,42.72719 0,6.21641 -0.0691,12.59327 -5.87989,16.4636 1.40773,2.29287 3.21614,1.07943 5.09593,-0.0757 5.03086,-3.09126 10.47355,-5.54715 16.46364,-5.80428 -0.46655,-2.61573 -2.26311,-4.82054 -2.66046,-7.44786 -1.00191,-6.62491 -0.0832,-14.07182 -0.0832,-20.77556 0,-11.93637 -0.91555,-23.45737 2.35194,-34.88728 -4.12338,-0.0151 -4.33068,-2.72891 -6.79272,-5.42135 -2.61891,-2.86399 -7.95714,-6.8534 -12.02291,-7.01288 -4.4881,-0.17603 -9.00737,5.87191 -12.9357,7.73031 l 0.39191,-8.23182 m -68.99064,13.71975 3.48528,5.09583 0.43478,14.89567 -0.11752,23.51956 -2.23426,6.66385 c 4.10789,-0.71416 4.80525,2.89772 7.12843,5.48223 2.57538,2.86494 7.08627,5.69786 10.90319,6.46507 5.02128,1.00937 9.75354,-5.75495 14.11171,-7.63534 l -1.17597,10.97577 c 5.94899,-2.47682 11.4685,-4.81418 18.03162,-5.09588 -0.90355,-2.38316 -3.14119,-4.19263 -3.75568,-6.66385 -1.25606,-5.05144 -0.16443,-11.64972 -0.16443,-16.8557 0,-12.14967 -2.07941,-26.20943 2.35194,-37.63122 -4.04434,0.0454 -4.30289,-2.32061 -6.73643,-5.09592 -2.62481,-2.99341 -7.15038,-6.62905 -11.29519,-7.01445 -5.61297,-0.52183 -11.44449,6.26186 -16.07169,8.93902 -4.78705,2.76971 -9.73383,2.72583 -14.89568,3.95536 m 131.31732,0 c 5.12402,7.36762 3.42562,15.96593 3.52947,24.69547 0.10188,8.56901 1.79651,17.19869 -2.3535,25.08748 4.34995,0.0151 4.84868,3.04244 7.48448,5.87833 2.59545,2.79256 6.76463,5.60928 10.54719,6.4576 5.9269,1.32935 8.85988,-7.27102 14.50362,-6.8481 l -1.56792,10.58386 18.03162,-5.48788 c -4.78463,-6.87973 -3.91991,-13.41158 -3.91991,-21.55957 0,-13.11581 -1.52894,-26.99808 2.35193,-39.5912 -3.93524,0.0757 -4.41481,-2.86701 -6.73643,-5.48637 -2.85521,-3.22149 -7.96758,-6.85168 -12.47111,-6.64695 -3.89706,0.17704 -7.09852,4.1898 -10.1918,6.22257 -5.82173,3.82574 -12.14068,6.54885 -19.20764,6.69476 m 155.62079,0 c 1.10111,1.56949 2.60992,2.87872 3.30718,4.70387 1.72095,4.50515 0.61278,10.91292 0.61278,15.67964 0,10.33969 0.49631,19.89985 -2.35199,29.7914 4.24428,-0.28448 4.61268,2.73834 7.12844,5.47219 2.69986,2.93379 7.93852,6.47148 12.0792,6.49352 4.28276,0.0202 9.01074,-5.48369 12.54374,-7.65375 l -0.78401,10.97577 17.63966,-5.09588 c -0.73963,-2.5146 -2.74702,-4.52552 -3.36398,-7.05591 -1.26494,-5.18767 -0.16392,-11.90685 -0.16392,-17.24766 0,-12.46253 -1.08004,-24.93318 2.35198,-36.8472 -4.12337,-0.0151 -4.33067,-2.72891 -6.79272,-5.42135 -2.58092,-2.82243 -7.30678,-6.30973 -11.23895,-6.68932 -5.42907,-0.52401 -10.48298,5.62865 -14.89567,8.26032 -5.26838,3.1419 -10.35326,3.27228 -16.07169,4.63436 m 128.57343,0.39191 c 3.57904,8.19677 2.74394,16.61915 2.74394,25.47948 0,5.39513 0.59139,11.11553 -0.11349,16.4636 -0.37778,2.8663 -1.81492,5.40314 -2.23855,8.23192 4.19505,-1.09587 4.37042,1.881 6.81234,4.63734 2.66607,3.0094 9.21946,8.01863 13.57127,6.95786 2.86242,-0.69776 5.49176,-3.68744 7.83976,-5.38232 0.78361,-0.56566 2.25918,-2.01334 3.29145,-1.21591 2.09344,1.61725 -0.37122,8.27364 -0.93946,10.29071 l 7.83982,-3.3613 10.1918,-2.12658 c -0.7598,-2.38437 -2.7706,-4.23343 -3.364,-6.66385 -1.2943,-5.30126 -0.1639,-12.18109 -0.1639,-17.63967 0,-9.87348 -1.5807,-21.25976 0.1816,-30.96741 0.3823,-2.10721 1.5752,-3.85419 2.1699,-5.87989 -4.2148,-0.0151 -4.6636,-3.06337 -7.17385,-5.86415 -2.41498,-2.69466 -7.1528,-5.94011 -10.85779,-6.24526 -5.00231,-0.41208 -9.08448,4.62362 -12.9358,7.13297 -5.4735,3.56639 -10.67535,4.62988 -16.8556,6.15246 m -261.45847,-4.77307 c 4.60774,0.46655 8.92671,5.67768 9.99,9.86935 2.62909,10.3647 0.59371,23.4328 0.59371,34.10336 0,4.42959 0.75551,13.81539 -5.87984,13.60627 -4.59346,-0.14476 -8.81923,-5.23589 -9.95857,-9.2944 -1.2481,-4.44588 -0.62524,-9.53979 -0.62524,-14.11172 0,-6.83861 -0.58125,-13.96877 0.0666,-20.77556 0.34651,-3.64376 0.0151,-13.9844 5.81336,-13.3973 m -132.88529,0.21032 c 5.16195,-0.92528 10.03771,4.63064 11.63272,8.87512 1.37611,3.66217 0.91102,8.29916 0.91102,12.15178 v 22.34359 c 0,3.98351 1.08497,12.93635 -4.31222,13.97522 -4.93927,0.95081 -10.10616,-4.62614 -11.22201,-8.8794 -2.78348,-10.60988 -0.92947,-23.53705 -0.92947,-34.49527 0,-3.96439 -1.57166,-12.98673 3.91996,-13.97104 m 287.33036,-0.005 c 5.10117,-0.57716 10.05189,4.86638 11.40504,9.27257 1.13951,3.71059 0.3561,7.59242 0.35459,11.36777 v 22.73559 c 0,3.97781 1.57594,13.49248 -4.31197,14.02188 -5.25107,0.4721 -9.94087,-4.76692 -11.28576,-9.31801 -1.07559,-3.63972 -0.47412,-7.99623 -0.47412,-11.75978 v -22.34353 c 0,-4.02901 -1.53655,-13.31474 4.31217,-13.97649 m 50.56827,0.0863 c 4.90759,-1.59274 10.37515,4.42722 11.90736,8.40241 1.55768,4.04151 1.02687,8.69096 1.02687,12.93569 v 22.34359 c 0,4.00272 0.98158,11.86857 -3.92596,13.4493 -5.06012,1.62981 -10.09718,-4.15959 -11.66394,-8.35343 -1.60248,-4.28947 -1.2658,-9.21572 -1.2658,-13.7197 v -21.55958 c 10e-4,-3.75966 -0.58776,-12.03491 3.92147,-13.49828 m 77.2212,-0.0711 c 4.92332,-0.2769 9.33294,5.0408 10.52848,9.25744 1.35885,4.79304 0.83899,9.94682 0.83899,14.89572 0,6.54426 0.3924,13.04409 0.3924,19.59965 0,4.40451 0.4368,13.05725 -5.48793,13.61928 -4.72591,0.44789 -8.88152,-5.57676 -10.44132,-9.30742 -1.49827,-3.58349 -0.9265,-8.34859 -0.9265,-12.15173 v -22.73554 c 0,-4.15778 -0.95192,-12.83709 5.09633,-13.1774"
         id="path25"
         sodipodi:nodetypes="csscsssccccssccccssscsccsscssccccsssscsscsssscscssscssccssssccssssscccssscssssssccssssccssssscccsssccccscscsssscccccccsccssssssccccsscssssssscsscccsscsccccccccsscccsscsssccscsscccscsssccsscsccccsscsssccsscsssscccssscsssccsscsssccssssssccscsssssccsssssscccsssssssc" /><g
         inkscape:label="Capa 1"
         id="g26"
         transform="matrix(5.043824,0,0,5.043824,-611.70823,-502.42854)"
         style="fill:#f6e6db;fill-opacity:1"><path
           d="m 175.74136,156.73195 0.68392,-3.86851 q 0.39345,-0.0581 0.72617,-0.0581 1.3652,0 1.3652,0.91102 0,0.30103 -0.21653,0.55717 -0.21389,0.2535 -0.507,0.29047 0.64431,0.11883 0.64431,0.88725 0,0.65487 -0.45947,0.98495 -0.45682,0.32743 -1.45762,0.32743 -0.2799,0 -0.77898,-0.0317 z m 1.15395,-3.44601 -0.17428,1.07209 q 0.22973,0.0185 0.37233,0.0185 0.8846,0 0.8846,-0.67864 0,-0.4357 -0.68656,-0.4357 -0.12939,0 -0.39609,0.0238 z m -0.26406,1.51307 -0.26406,1.48403 q 0.14523,0.0264 0.31951,0.0264 0.52548,0 0.86348,-0.20861 0.34064,-0.21125 0.34064,-0.5915 0,-0.72881 -0.92685,-0.72881 -0.15316,0 -0.33272,0.0185 z m 4.14313,1.93294 -0.60734,-1.66095 q -0.20333,0 -0.55717,-0.0264 l -0.29575,1.68736 h -0.55453 l 0.68128,-3.86851 q 0.10826,-0.003 0.42514,-0.0211 0.31951,-0.0185 0.52284,-0.0185 0.61262,0 0.9427,0.21917 0.33272,0.21917 0.33272,0.62847 0,0.48323 -0.28783,0.84764 -0.28518,0.36176 -0.71825,0.45947 l 0.72089,1.75337 z m -0.86348,-3.3932 -0.22181,1.25694 q 0.1954,0.0264 0.36704,0.0264 0.47003,0 0.75522,-0.1954 0.28783,-0.19541 0.28783,-0.53605 0,-0.31423 -0.20069,-0.44627 -0.20069,-0.13203 -0.67072,-0.13203 -0.10034,0 -0.31687,0.0264 z m 3.08688,0 -0.19012,1.07473 h 1.27806 l -0.0792,0.44891 h -1.27806 l -0.24558,1.39425 h 1.75337 l -0.0845,0.47531 h -2.3079 l 0.68392,-3.86851 h 2.33695 l -0.0871,0.47531 z m 4.75312,3.44601 h -0.16636 l -0.44626,-2.61157 -1.33616,2.61157 h -0.16636 l -0.52812,-3.92132 h 0.54925 l 0.31423,2.61421 1.31239,-2.61421 h 0.18484 l 0.38817,2.60101 1.21469,-2.60101 h 0.57566 z m 1.67151,-0.0528 0.68392,-3.86851 h 0.53869 l -0.68392,3.86851 z m 3.95565,0.0528 -1.51043,-2.74625 -0.45419,2.69344 h -0.52812 l 0.68392,-3.86851 h 0.21125 l 1.47874,2.63534 0.44627,-2.63534 h 0.52284 l -0.69184,3.92132 z m 4.17218,-3.76552 -0.15844,0.50435 q -0.338,-0.25086 -0.73409,-0.25086 -0.71033,0 -1.16451,0.54925 -0.45419,0.54925 -0.45419,1.38369 0,1.11698 1.05361,1.11698 0.4225,0 0.72881,-0.2535 l 0.16108,-0.90573 h -0.53605 l 0.0792,-0.44891 h 1.06417 l -0.29839,1.68472 q -0.54661,0.39873 -1.39161,0.39873 -1.42329,0 -1.42329,-1.48931 0,-1.1117 0.63111,-1.81146 0.63111,-0.69977 1.65039,-0.69977 0.57037,0 0.79218,0.22182 z m 5.20994,3.71271 -0.0528,-2.3924 -1.28598,2.44521 h -0.13203 l -0.41722,-2.46634 -0.89253,2.41353 h -0.50172 l 1.37841,-3.86851 h 0.2667 l 0.41986,2.71456 1.36256,-2.71456 h 0.27726 l 0.10827,3.86851 z m 1.12491,-1.42066 q 0,-1.01928 0.54396,-1.76657 0.54397,-0.74994 1.41274,-0.74994 0.66807,0 1.01663,0.36441 0.35121,0.3644 0.35121,1.04832 0,1.12755 -0.55189,1.859 -0.54925,0.73145 -1.52364,0.73145 -0.58358,0 -0.9163,-0.41193 -0.33271,-0.41458 -0.33271,-1.07474 z m 0.56245,-0.0739 q 0,0.50171 0.19804,0.79482 0.20069,0.29047 0.57302,0.29047 0.65751,0 1.04304,-0.60998 0.38818,-0.60999 0.38818,-1.4497 0,-0.99552 -0.85557,-0.99552 -0.59149,0 -0.9691,0.64696 -0.37761,0.64431 -0.37761,1.32295 z m 5.42911,1.5474 -1.51043,-2.74625 -0.45419,2.69344 h -0.52812 l 0.68392,-3.86851 h 0.21125 l 1.47875,2.63534 0.44626,-2.63534 h 0.52284 l -0.69184,3.92132 z m 3.09745,-0.0528 -0.74994,-1.77978 -0.64431,0.73145 -0.18484,1.04833 h -0.53341 l 0.68128,-3.86851 h 0.53341 l -0.34856,2.00159 1.75865,-2.00159 h 0.61527 l -1.45235,1.67679 0.93478,2.19172 z m 1.04833,-0.12411 0.15844,-0.507 q 0.11354,0.0898 0.338,0.15315 0.22709,0.0634 0.4357,0.0634 0.31423,0 0.50436,-0.15316 0.19012,-0.15315 0.19012,-0.4225 0,-0.22445 -0.14523,-0.39609 -0.1426,-0.17164 -0.49116,-0.4225 -0.34592,-0.25086 -0.50436,-0.46739 -0.15843,-0.21653 -0.15843,-0.54132 0,-0.52285 0.33007,-0.8186 0.33272,-0.29839 0.8582,-0.29839 0.59414,0 0.78955,0.10299 l -0.15052,0.51228 q -0.0739,-0.0607 -0.24821,-0.11355 -0.17428,-0.0528 -0.3248,-0.0528 -0.338,0 -0.53341,0.15315 -0.1954,0.15316 -0.1954,0.44099 0,0.12147 0.0607,0.23501 0.0634,0.11355 0.169,0.20597 0.10563,0.0898 0.43306,0.33536 0.33008,0.24558 0.48324,0.50172 0.15579,0.2535 0.15579,0.5915 0,0.52548 -0.35384,0.80803 -0.3512,0.2799 -0.9295,0.2799 -0.20596,0 -0.46475,-0.0581 -0.25878,-0.0581 -0.40665,-0.13203 z m 7.17984,-3.68631 -0.14523,0.51492 q -0.22181,-0.169 -0.62583,-0.169 -0.62319,0 -1.05097,0.62319 -0.42514,0.62055 -0.42514,1.34143 0,1.09058 0.90574,1.09058 0.46739,0 0.90837,-0.38289 l -0.0423,0.55981 q -0.3248,0.29839 -1.00608,0.29839 -0.63374,0 -0.97967,-0.39081 -0.34592,-0.39081 -0.34592,-1.07737 0,-1.06153 0.57566,-1.79562 0.57829,-0.73674 1.49195,-0.73674 0.45947,0 0.73937,0.12411 z m 0.35649,2.38976 q 0,-1.01928 0.54396,-1.76657 0.54397,-0.74994 1.41274,-0.74994 0.66807,0 1.01663,0.36441 0.35121,0.3644 0.35121,1.04832 0,1.12755 -0.55189,1.859 -0.54925,0.73145 -1.52364,0.73145 -0.58358,0 -0.9163,-0.41193 -0.33271,-0.41458 -0.33271,-1.07474 z m 0.56245,-0.0739 q 0,0.50171 0.19804,0.79482 0.20069,0.29047 0.57302,0.29047 0.65751,0 1.04304,-0.60998 0.38818,-0.60999 0.38818,-1.4497 0,-0.99552 -0.85557,-0.99552 -0.59149,0 -0.9691,0.64696 -0.37761,0.64431 -0.37761,1.32295 z m 3.61237,0.75257 q 0.16372,0 0.2799,0.11619 0.11619,0.11619 0.11619,0.27991 0,0.16371 -0.11619,0.28254 -0.11618,0.11619 -0.2799,0.11619 -0.16372,0 -0.27991,-0.11619 -0.11618,-0.11883 -0.11618,-0.28254 0,-0.16372 0.11618,-0.27991 0.11619,-0.11619 0.27991,-0.11619 z"
           id="path26"
           style="font-style:italic;font-size:5.40799px;font-family:'Trebuchet MS';-inkscape-font-specification:'Trebuchet MS, Italic';fill:#f6e6db;fill-opacity:1;stroke-width:0"
           inkscape:label="text1"
           aria-label="BREWING MONKS CO." /></g></g><use
       x="0"
       y="0"
       inkscape:tiled-clone-of="#use1"
       xlink:href="#use1"
       id="use119" /><use
       x="0"
       y="0"
       inkscape:tiled-clone-of="#use1"
       xlink:href="#use1"
       transform="translate(0,390.21166)"
       id="use120" /><use
       x="0"
       y="0"
       inkscape:tiled-clone-of="#use1"
       xlink:href="#use1"
       transform="translate(0,780.42332)"
       id="use121" /><use
       x="0"
       y="0"
       inkscape:tiled-clone-of="#use1"
       xlink:href="#use1"
       transform="translate(0,1170.635)"
       id="use122" /><use
       x="0"
       y="0"
       inkscape:tiled-clone-of="#use1"
       xlink:href="#use1"
       transform="translate(0,1560.8466)"
       id="use123" /><use
       x="0"
       y="0"
       inkscape:tiled-clone-of="#use1"
       xlink:href="#use1"
       transform="translate(0,1951.0583)"
       id="use124" /><use
       x="0"
       y="0"
       inkscape:tiled-clone-of="#use1"
       xlink:href="#use1"
       transform="translate(438.25692)"
       id="use125" /><use
       x="0"
       y="0"
       inkscape:tiled-clone-of="#use1"
       xlink:href="#use1"
       transform="translate(438.25692,390.21166)"
       id="use126" /><use
       x="0"
       y="0"
       inkscape:tiled-clone-of="#use1"
       xlink:href="#use1"
       transform="translate(438.25692,780.42332)"
       id="use127" /><use
       x="0"
       y="0"
       inkscape:tiled-clone-of="#use1"
       xlink:href="#use1"
       transform="translate(438.25692,1170.635)"
       id="use128" /><use
       x="0"
       y="0"
       inkscape:tiled-clone-of="#use1"
       xlink:href="#use1"
       transform="translate(438.25692,1560.8466)"
       id="use129" /><use
       x="0"
       y="0"
       inkscape:tiled-clone-of="#use1"
       xlink:href="#use1"
       transform="translate(438.25692,1951.0583)"
       id="use130" /><use
       x="0"
       y="0"
       inkscape:tiled-clone-of="#use1"
       xlink:href="#use1"
       transform="translate(876.51384)"
       id="use131" /><use
       x="0"
       y="0"
       inkscape:tiled-clone-of="#use1"
       xlink:href="#use1"
       transform="translate(876.51384,390.21166)"
       id="use132" /><use
       x="0"
       y="0"
       inkscape:tiled-clone-of="#use1"
       xlink:href="#use1"
       transform="translate(876.51384,780.42332)"
       id="use133" /><use
       x="0"
       y="0"
       inkscape:tiled-clone-of="#use1"
       xlink:href="#use1"
       transform="translate(876.51384,1170.635)"
       id="use134" /><use
       x="0"
       y="0"
       inkscape:tiled-clone-of="#use1"
       xlink:href="#use1"
       transform="translate(876.51384,1560.8466)"
       id="use135" /><use
       x="0"
       y="0"
       inkscape:tiled-clone-of="#use1"
       xlink:href="#use1"
       transform="translate(876.51384,1951.0583)"
       id="use136" /><use
       x="0"
       y="0"
       inkscape:tiled-clone-of="#use1"
       xlink:href="#use1"
       transform="translate(1314.7708)"
       id="use137" /><use
       x="0"
       y="0"
       inkscape:tiled-clone-of="#use1"
       xlink:href="#use1"
       transform="translate(1314.7708,390.21166)"
       id="use138" /><use
       x="0"
       y="0"
       inkscape:tiled-clone-of="#use1"
       xlink:href="#use1"
       transform="translate(1314.7708,780.42332)"
       id="use139" /><use
       x="0"
       y="0"
       inkscape:tiled-clone-of="#use1"
       xlink:href="#use1"
       transform="translate(1314.7708,1170.635)"
       id="use140" /><use
       x="0"
       y="0"
       inkscape:tiled-clone-of="#use1"
       xlink:href="#use1"
       transform="translate(1314.7708,1560.8466)"
       id="use141" /><use
       x="0"
       y="0"
       inkscape:tiled-clone-of="#use1"
       xlink:href="#use1"
       transform="translate(1314.7708,1951.0583)"
       id="use142" /></g></svg>
