<?xml version="1.0" encoding="UTF-8" standalone="no"?>
<!-- Created with Inkscape (http://www.inkscape.org/) -->

<svg
   width="70.215256mm"
   height="56.609196mm"
   viewBox="0 0 70.215256 56.609196"
   version="1.1"
   id="svg1"
   xml:space="preserve"
   inkscape:version="1.3.2 (091e20e, 2023-11-25, custom)"
   sodipodi:docname="logo.svg"
   xmlns:inkscape="http://www.inkscape.org/namespaces/inkscape"
   xmlns:sodipodi="http://sodipodi.sourceforge.net/DTD/sodipodi-0.dtd"
   xmlns="http://www.w3.org/2000/svg"
   xmlns:svg="http://www.w3.org/2000/svg"><sodipodi:namedview
     id="namedview1"
     pagecolor="#ffffff"
     bordercolor="#000000"
     borderopacity="0.25"
     inkscape:showpageshadow="2"
     inkscape:pageopacity="0.0"
     inkscape:pagecheckerboard="0"
     inkscape:deskcolor="#d1d1d1"
     inkscape:document-units="mm"
     inkscape:zoom="0.69219276"
     inkscape:cx="186.36427"
     inkscape:cy="31.060712"
     inkscape:window-width="2048"
     inkscape:window-height="991"
     inkscape:window-x="-9"
     inkscape:window-y="-9"
     inkscape:window-maximized="1"
     inkscape:current-layer="layer1" /><defs
     id="defs1" /><g
     inkscape:label="Capa 1"
     inkscape:groupmode="layer"
     id="layer1"
     transform="translate(-55.687527,-140.4168)"><path
       style="fill:#e61a21;fill-opacity:1"
       d="m 55.70873,196.71418 c 0.09737,-0.53186 0.400255,-1.03769 0.960356,-1.60382 0.598665,-0.6051 0.596131,-0.58412 0.166757,-1.38068 -0.316123,-0.58646 -0.541315,-0.78849 -0.8051,-0.72229 -0.321062,0.0806 -0.373379,-0.0228 -0.19175,-0.37879 0.261537,-0.51265 0.403779,-1.00001 0.50207,-1.72021 0.109854,-0.80493 0.122926,-17.29896 0.01408,-17.76738 -0.03975,-0.17106 -0.191237,-0.48729 -0.336647,-0.70275 -0.316284,-0.46864 -0.323503,-0.55219 -0.06842,-0.79182 0.26108,-0.24527 0.429386,-0.23204 0.619806,0.0487 0.151343,0.22316 0.159709,0.66024 0.201345,10.51983 0.03551,8.40905 0.06453,10.3411 0.158947,10.58334 0.16686,0.42808 0.508106,1.11795 0.641807,1.29748 0.159471,0.21414 0.586096,0.16273 0.620062,-0.0747 0.01371,-0.0958 -0.0914,-0.40869 -0.233566,-0.69523 -0.142169,-0.28655 -0.300535,-0.76059 -0.351923,-1.05343 -0.06238,-0.3555 -0.112891,-3.965 -0.151984,-10.86177 -0.05461,-9.6337 -0.06878,-10.35784 -0.210466,-10.75267 -0.232681,-0.64839 -0.502738,-0.889 -0.997825,-0.889 -0.224121,0 -0.407493,-0.0306 -0.407493,-0.0681 0,-0.0885 0.490274,-0.5427 0.762,-0.70594 0.773226,-0.46452 1.755686,-0.56005 2.496014,-0.24271 0.49246,0.21109 1.282065,1.00067 1.555809,1.55575 0.109719,0.22248 0.249927,0.42386 0.311574,0.44752 0.191575,0.0735 0.639169,-0.19518 1.848226,-1.10951 0.641695,-0.48527 1.275053,-0.9061 1.407463,-0.93518 0.981989,-0.21568 3.544751,1.45972 4.152165,2.71447 0.277657,0.57356 0.545445,0.79559 0.891769,0.73939 0.333865,-0.0542 0.349766,-0.007 0.135956,0.39952 -0.402151,0.76547 -0.395309,0.59332 -0.395309,9.94709 0,8.33201 0.0083,8.82581 0.154689,9.18633 0.08508,0.20955 0.254373,0.48603 0.376209,0.61439 0.141752,0.14935 0.192208,0.2627 0.140119,0.31479 -0.04477,0.0448 -0.385514,0.11952 -0.757208,0.1661 -0.371695,0.0466 -0.882991,0.14276 -1.136213,0.21372 -1.01272,0.28378 -2.698503,1.25989 -4.323263,2.50329 -0.34925,0.26727 -0.764747,0.55158 -0.923326,0.63181 -0.358158,0.18118 -1.308921,0.19699 -2.525279,0.042 -1.3915,-0.17733 -3.207517,0.12135 -3.88647,0.63921 -0.390645,0.29796 -0.484919,0.27325 -0.414979,-0.10879 z m 9.00226,-2.72346 c 0.306511,-0.15836 0.378921,-0.24253 0.734426,-0.85371 0.170601,-0.29329 0.172353,-0.3931 0.170941,-9.73666 -0.0014,-9.28946 -0.0042,-9.4471 -0.173289,-9.86367 -0.322536,-0.79448 -0.533788,-1.11443 -1.053542,-1.59563 -0.570475,-0.52816 -1.446787,-0.98788 -2.004623,-1.05164 -0.647109,-0.074 -1.233633,0.47209 -1.452273,1.35207 -0.07018,0.28247 -0.115045,2.87765 -0.154416,8.93234 -0.051,7.84377 -0.04369,8.60457 0.09044,9.40409 0.246003,1.46636 0.763656,2.33062 1.780623,2.97289 0.965892,0.61002 1.508412,0.72578 2.061709,0.43992 z m 56.74447,2.40039 c 0,-0.0263 0.0369,-0.11693 0.0821,-0.20131 0.15975,-0.29849 0.35149,-2.13017 0.25393,-2.42577 -0.17846,-0.54074 -0.24614,-0.51303 -2.03612,0.83348 -1.16804,0.87866 -1.22479,0.91017 -1.63968,0.91017 -0.32691,0 -0.58225,-0.076 -1.06687,-0.3175 -1.46804,-0.7316 -2.33681,-1.48014 -2.86244,-2.46632 -0.3168,-0.59438 -0.48962,-0.71682 -0.90245,-0.63937 -0.16233,0.0305 -0.29514,0.0369 -0.29514,0.0143 0,-0.0226 0.0926,-0.20782 0.20587,-0.41159 0.44871,-0.80751 0.47171,-1.11811 0.46844,-6.32359 -0.003,-4.95356 -0.0266,-5.34781 -0.35721,-5.98709 -0.0717,-0.13872 -0.21054,-0.32471 -0.30844,-0.41331 -0.0979,-0.0886 -0.178,-0.20977 -0.178,-0.26926 0,-0.12612 0.2974,-0.23975 0.4235,-0.16181 0.10261,0.0634 1.18907,-0.16342 1.90484,-0.39769 1.05501,-0.34531 2.22412,-1.0407 4.13264,-2.4581 0.8883,-0.65972 1.04005,-0.74265 1.3589,-0.74265 0.19741,0 0.39512,0.0342 0.43936,0.0759 0.0442,0.0417 0.28998,0.1628 0.5461,0.26901 1.11177,0.46104 2.26999,1.38487 2.71803,2.16796 0.42657,0.74557 0.64258,0.95847 0.9725,0.95847 0.31992,0 0.36369,0.10941 0.16006,0.40012 -0.30729,0.43872 -0.32716,0.86922 -0.35671,7.72787 -0.0215,4.98991 -0.003,6.82955 0.0711,7.112 0.10892,0.41454 0.35841,0.87541 0.61022,1.12721 0.22284,0.22284 0.1063,0.29502 -0.57688,0.35728 -0.92452,0.0842 -2.50473,0.62759 -3.302,1.13536 -0.25187,0.16042 -0.46566,0.21839 -0.46566,0.12625 z m -0.73663,-3.137 c 1.10556,-0.55859 1.18928,-1.12816 1.13097,-7.69476 -0.0223,-2.5146 -0.0657,-4.7625 -0.0963,-4.99534 -0.22771,-1.73138 -1.65359,-3.23352 -3.16132,-3.33041 -0.67686,-0.0435 -1.03655,0.13338 -1.34905,0.66341 -0.22279,0.37788 -0.22513,0.39939 -0.28521,2.62467 -0.0913,3.38171 -0.0854,8.26381 0.0109,9.06704 0.14451,1.20498 0.38332,1.79042 1.00421,2.46184 0.5375,0.58124 1.01101,0.919 1.65917,1.18351 0.44687,0.18236 0.75411,0.18803 1.0866,0.02 z m -34.281922,2.69807 c 0.03059,-0.17463 0.07941,-0.78322 0.108506,-1.35243 0.04549,-0.89005 0.03448,-1.04199 -0.07866,-1.08541 -0.193389,-0.0742 -0.67391,0.20023 -1.659258,0.94765 -1.446917,1.09753 -1.421045,1.08302 -1.918162,1.07583 -0.512297,-0.007 -1.194921,-0.30732 -2.179479,-0.95758 -0.756652,-0.49974 -1.140515,-0.89482 -1.70245,-1.75222 -0.420435,-0.6415 -0.448166,-0.66558 -0.795455,-0.69071 -0.197908,-0.0143 -0.359833,-0.0608 -0.359833,-0.10332 0,-0.0425 0.104775,-0.2975 0.232833,-0.56664 l 0.232833,-0.48934 v -5.588 -5.588 l -0.233588,-0.38973 c -0.128474,-0.21435 -0.309449,-0.45838 -0.402167,-0.54228 -0.276087,-0.24986 -0.212229,-0.38032 0.18616,-0.38032 1.068029,0 2.968479,-0.61877 3.936185,-1.28159 0.194657,-0.13332 0.381025,-0.24241 0.414151,-0.24241 0.03313,0 0.592241,-0.40315 1.242476,-0.8959 1.126479,-0.85363 1.635926,-1.1361 2.049014,-1.1361 0.57826,0 2.184019,0.87979 2.98822,1.63723 0.24408,0.22988 0.613851,0.71282 0.821712,1.07319 0.207861,0.36037 0.432092,0.67601 0.498291,0.70141 0.0662,0.0254 0.277454,0.0251 0.469455,-6.4e-4 0.280877,-0.0377 0.349093,-0.0208 0.349093,0.0863 0,0.0732 -0.03837,0.15687 -0.08527,0.18585 -0.150618,0.0931 -0.367243,0.58013 -0.45173,1.01563 -0.108682,0.56023 -0.164262,10.43026 -0.07129,12.65915 0.06877,1.64857 0.08427,1.7625 0.277064,2.03655 0.112322,0.15967 0.251846,0.32077 0.310054,0.35801 0.05821,0.0372 0.105833,0.13927 0.105833,0.22674 0,0.13082 -0.08637,0.16873 -0.486833,0.21373 -1.020655,0.11467 -2.972717,0.71657 -3.329833,1.02673 -0.07352,0.0639 -0.221377,0.11609 -0.328578,0.11609 -0.178673,0 -0.190279,-0.0264 -0.139299,-0.3175 z m -0.958472,-2.77506 c 0.466736,-0.16468 0.63279,-0.3181 0.862475,-0.79684 0.183389,-0.38225 0.185611,-0.44024 0.2139,-5.58056 0.01631,-2.96375 -0.0066,-5.54538 -0.05332,-6.01185 -0.137374,-1.37118 -0.60712,-2.22967 -1.571382,-2.87183 -0.940329,-0.62621 -1.104784,-0.69636 -1.63261,-0.69636 -0.599217,0 -0.950072,0.21715 -1.227711,0.75987 l -0.196003,0.38313 v 5.969 c 0,6.44328 -0.0152,6.19923 0.440276,7.06967 0.331782,0.63404 1.454954,1.55063 2.181577,1.78031 0.461407,0.14585 0.557795,0.14541 0.982798,-0.005 z m 11.000349,2.19653 c -0.302683,-0.11765 -0.607483,-0.24796 -0.677333,-0.28956 -0.06985,-0.0416 -0.2794,-0.15775 -0.465667,-0.25811 -0.726999,-0.39172 -1.489146,-1.102 -1.951484,-1.81868 -0.480944,-0.74552 -0.720244,-0.97095 -1.030688,-0.97095 -0.238212,0 -0.238933,-0.0436 -0.0085,-0.51327 0.296177,-0.60369 0.332889,-1.99945 0.306069,-11.6364 -0.0241,-8.65896 -0.02909,-8.8988 -0.192148,-9.22867 -0.09207,-0.18626 -0.273888,-0.46477 -0.404031,-0.6189 -0.130142,-0.15413 -0.214485,-0.31605 -0.187429,-0.35983 0.02706,-0.0438 0.251706,-0.0796 0.499219,-0.0796 0.247514,0 0.612006,-0.0572 0.809982,-0.127 0.197976,-0.0699 0.445675,-0.127 0.550443,-0.127 0.30573,0 1.800683,-0.68258 2.370557,-1.08237 0.186267,-0.13067 0.433917,-0.40732 0.550333,-0.61478 l 0.211667,-0.37718 v -7.62 -7.62 l -0.195186,-0.54305 c -0.500092,-1.39135 -1.785043,-2.53981 -3.001641,-2.68279 -0.875987,-0.10296 -1.309541,0.34996 -1.548047,1.61717 -0.126322,0.67117 -0.142932,1.45926 -0.139345,6.61132 0.0044,6.36287 0.007,6.40134 0.486045,7.25844 0.119801,0.21434 0.405924,0.54721 0.63583,0.7397 0.229906,0.19248 0.418011,0.38423 0.418011,0.4261 0,0.18656 -2.062155,1.77077 -2.304993,1.77077 -0.283574,0 -0.73773,-0.26165 -1.221334,-0.70363 -0.531572,-0.48583 -0.727503,-0.83013 -1.010566,-1.77584 -0.234114,-0.78217 -0.297264,-0.87694 -0.633625,-0.95081 -0.136482,-0.03 -0.248149,-0.0764 -0.248149,-0.10308 0,-0.0267 0.123825,-0.29991 0.275166,-0.60711 l 0.275167,-0.55853 v -6.64903 c 0,-6.41311 -0.0059,-6.66245 -0.165561,-7.02733 -0.09106,-0.20807 -0.252984,-0.486 -0.359833,-0.61763 -0.321239,-0.39575 -0.265223,-0.45946 0.461894,-0.52538 0.360892,-0.0327 0.808567,-0.11161 0.994833,-0.17532 0.186267,-0.0637 0.390059,-0.1164 0.452871,-0.11707 0.158445,-0.002 0.605514,-0.19631 1.468411,-0.63917 0.404771,-0.20774 0.753053,-0.34921 0.773959,-0.31439 0.02091,0.0348 -0.03185,0.33002 -0.117234,0.65599 -0.253128,0.96635 -0.211388,1.56633 0.108968,1.56633 0.192887,0 1.184677,-0.6481 2.012026,-1.3148 0.75512,-0.60849 1.095678,-0.80118 1.416707,-0.80155 0.376621,-4.3e-4 1.729106,0.66458 2.449682,1.20451 0.718344,0.53826 1.355084,1.27059 1.499009,1.72406 0.113476,0.35753 0.37809,0.54245 0.77623,0.54245 0.40886,0 0.44208,0.0397 0.25564,0.30592 -0.0671,0.0959 -0.20179,0.38055 -0.29925,0.63268 -0.1749,0.45249 -0.17714,0.5507 -0.17351,7.61273 0.004,7.95542 -0.0156,7.67119 0.57079,8.24072 0.15193,0.14755 0.27664,0.31064 0.27713,0.36241 5.4e-4,0.0565 -0.32924,0.13084 -0.82459,0.18592 -1.220551,0.13571 -1.525579,0.22853 -2.815172,0.85659 -0.805373,0.39223 -1.20444,0.69294 -1.300579,0.98003 -0.05152,0.15386 -0.0873,1.73939 -0.09074,4.02166 l -0.0057,3.76767 0.184171,0.0262 c 0.193435,0.0275 0.516735,-0.17895 1.890163,-1.20727 1.191462,-0.89209 1.24258,-0.91931 1.614361,-0.85986 0.656926,0.10504 2.049136,0.82972 2.830636,1.4734 0.28831,0.23747 1.05834,1.25962 1.05834,1.40486 0,0.0526 0.0968,0.2001 0.21509,0.32768 0.17393,0.18758 0.28908,0.23197 0.60172,0.23197 0.33397,0 0.3787,0.0202 0.3284,0.14816 -0.25837,0.65731 -0.3909,1.34617 -0.55793,2.89983 -0.0375,0.34925 -0.0563,2.0828 -0.0418,3.85234 0.0284,3.45044 0.14986,4.76581 0.54973,5.95282 0.0961,0.28536 0.17478,0.55427 0.17478,0.59758 0,0.0433 -0.27622,0.10498 -0.61383,0.13705 -1.67448,0.15904 -3.32158,0.95722 -5.609168,2.71818 -0.846299,0.65147 -1.222799,0.88131 -1.439333,0.87867 -0.09313,-0.001 -0.416984,-0.0983 -0.719667,-0.216 z m 3.369705,-2.10159 c 0.34693,-0.18051 0.57868,-0.46958 0.77261,-0.96368 0.17169,-0.43746 0.17569,-0.57851 0.17569,-6.20338 v -5.75574 l -0.28403,-0.71536 c -0.31348,-0.78958 -0.624957,-1.19139 -1.324642,-1.70881 -0.674426,-0.49875 -1.222174,-0.71826 -1.812135,-0.72622 -0.477426,-0.006 -0.513931,0.008 -0.815388,0.33158 -0.593486,0.63625 -0.589966,0.59575 -0.588559,6.77193 0.0013,5.72756 0.02103,6.08476 0.373339,6.76044 0.0728,0.13962 0.132601,0.29499 0.132888,0.34526 9.51e-4,0.16667 0.922866,1.11385 1.375488,1.41319 0.244952,0.162 0.568755,0.3213 0.719563,0.35399 0.150808,0.0327 0.295931,0.0946 0.322497,0.1376 0.0739,0.11956 0.695636,0.0929 0.952679,-0.0408 z m 9.17921,2.2319 c -0.27266,-0.10946 -0.89646,-0.59749 -1.15218,-0.9014 -0.3011,-0.35784 -0.63069,-1.03984 -0.7802,-1.61445 -0.18315,-0.70388 -0.32938,-0.89676 -0.63372,-0.83589 -0.28763,0.0575 -0.29943,0.015 -0.0908,-0.32754 0.0851,-0.1397 0.22779,-0.4826 0.31718,-0.762 0.15631,-0.48859 0.16252,-0.87523 0.16252,-10.11767 0,-9.37452 -0.004,-9.62179 -0.16866,-10.10519 -0.0928,-0.27255 -0.29146,-0.639 -0.44155,-0.81435 -0.15009,-0.17534 -0.24882,-0.34288 -0.2194,-0.3723 0.0294,-0.0294 0.22267,-0.0535 0.42944,-0.0535 0.7908,0 1.92289,-0.32781 3.13688,-0.90833 0.43415,-0.20761 0.80506,-0.36178 0.82424,-0.3426 0.0192,0.0192 -0.0217,0.35611 -0.0908,0.74873 -0.1067,0.60633 -0.12565,2.35357 -0.12574,11.59826 l -1.2e-4,10.88439 0.18407,0.54561 c 0.14475,0.42908 0.28788,0.64949 0.67013,1.03202 0.26734,0.26752 0.50321,0.53422 0.52416,0.59266 0.0713,0.19891 -0.11208,0.39922 -0.93608,1.02249 -1.14381,0.86517 -1.2055,0.89319 -1.60937,0.73105 z m -35.928776,-0.56482 c -0.534556,-0.50988 -1.002797,-1.33299 -1.161071,-2.04102 -0.09851,-0.44069 -0.284971,-0.66447 -0.613848,-0.7367 -0.134871,-0.0296 -0.245221,-0.0638 -0.245221,-0.076 0,-0.0121 0.123825,-0.26629 0.275167,-0.56477 l 0.275167,-0.54269 0.02376,-6.731 c 0.02622,-7.42922 0.05514,-6.98571 -0.502893,-7.71241 -0.287821,-0.37482 -0.20295,-0.49808 0.347901,-0.5053 0.870671,-0.0114 1.754659,-0.26421 2.934861,-0.83932 0.536587,-0.26147 0.992331,-0.44835 1.012765,-0.41529 0.02043,0.0331 0.0024,0.15147 -0.04003,0.26312 -0.07893,0.20761 -0.209132,1.37745 -0.195722,1.75854 0.0041,0.11641 -0.03245,0.36406 -0.08122,0.55033 -0.05873,0.22432 -0.08515,2.68279 -0.07826,7.28133 0.0096,6.43445 0.02148,6.97366 0.161583,7.366 0.237981,0.66642 0.390906,0.90341 0.853652,1.32291 0.237566,0.21536 0.431938,0.43946 0.431938,0.498 0,0.14675 -0.477171,0.58328 -1.070382,0.9792 -0.790851,0.52784 -1.021161,0.62889 -1.433263,0.62889 -0.355956,0 -0.428999,-0.0395 -0.894882,-0.48387 z m -1.596806,-20.18877 c 0,-0.0499 0.119705,-0.22701 0.266012,-0.39364 0.146307,-0.16664 0.360295,-0.51456 0.475528,-0.77318 0.189209,-0.42463 0.205087,-0.54655 0.163833,-1.25794 -0.04521,-0.77956 -0.04349,-0.78857 0.164985,-0.86783 0.455042,-0.17301 2.439838,-0.035 2.575284,0.17905 0.243884,0.38544 -0.21053,1.65106 -0.778012,2.16688 -0.31214,0.28373 -1.00088,0.65205 -1.512964,0.80909 -0.596632,0.18297 -1.354666,0.25995 -1.354666,0.13757 z m 10.963914,-7.03452 c 0.03392,-0.10478 0.08068,-0.733 0.103932,-1.39606 0.03738,-1.06622 0.02613,-1.21174 -0.09733,-1.25912 -0.159338,-0.0611 -1.028801,0.48801 -1.953517,1.23384 -0.991861,0.79999 -1.083397,0.84984 -1.560651,0.84984 -0.45904,0 -0.921683,-0.19439 -2.049176,-0.86098 -0.694301,-0.41048 -1.472594,-1.2123 -1.853997,-1.91004 -0.305928,-0.55966 -0.543292,-0.7181 -0.957251,-0.63897 -0.27931,0.0534 -0.280068,0.005 -0.0072,-0.46093 0.337256,-0.57548 0.406651,-1.67726 0.412117,-6.54308 0.0059,-5.21458 -0.0049,-5.30454 -0.754203,-6.31627 -0.128288,-0.17322 -0.03006,-0.21035 0.866328,-0.32749 0.462353,-0.0604 0.92012,-0.1524 1.01726,-0.20438 0.09714,-0.052 0.23965,-0.0945 0.316688,-0.0945 0.433764,0 2.620306,-1.27975 3.885949,-2.27438 0.877109,-0.68929 1.319366,-0.94296 1.644,-0.94296 0.322259,0 1.402894,0.48219 2.130447,0.95062 0.571655,0.36806 1.366742,1.21199 1.824115,1.93617 0.334481,0.5296 0.351716,0.54281 0.740833,0.56802 0.219112,0.0142 0.398386,0.0455 0.398386,0.0696 0,0.0241 -0.104775,0.22202 -0.232834,0.43986 l -0.232833,0.39607 v 7.4226 7.42259 l 0.275167,0.39038 c 0.151341,0.21471 0.275166,0.40832 0.275166,0.43024 0,0.0219 -0.105648,0.0399 -0.234775,0.0399 -0.209611,0 -1.366576,0.2726 -2.121529,0.49987 -0.155085,0.0467 -0.60051,0.23906 -0.989835,0.42751 -0.823827,0.39875 -0.931378,0.41811 -0.84528,0.15212 z m -0.709123,-2.93843 c 0.207803,-0.13764 0.47151,-0.41387 0.586016,-0.61383 l 0.208193,-0.36358 v -6.096 -6.09599 l -0.306657,-0.635 c -0.168662,-0.34925 -0.435362,-0.76505 -0.592667,-0.92399 -0.479772,-0.48477 -1.442692,-1.06518 -1.958772,-1.18068 -0.79983,-0.17899 -1.256268,0.0297 -1.640501,0.75 -0.150137,0.28146 -0.15807,0.60438 -0.15807,6.43466 v 6.13834 l 0.279893,0.54738 c 0.393144,0.76886 0.769239,1.19581 1.446323,1.64187 1.103445,0.72696 1.520791,0.80448 2.136242,0.39682 z m 36.940101,2.85376 c 0.13305,-0.64551 0.22119,-2.16193 0.13832,-2.37988 -0.14721,-0.3872 -0.29102,-0.31744 -1.89435,0.91885 -1.49497,1.15275 -1.73935,1.19952 -2.95755,0.56606 -0.43168,-0.22447 -0.89875,-0.4803 -1.03793,-0.56851 -0.68459,-0.43387 -1.36639,-1.17636 -1.74209,-1.89716 -0.24846,-0.47669 -0.52133,-0.65385 -0.80677,-0.52379 -0.34053,0.15515 -0.38963,0.0302 -0.14929,-0.37989 0.42033,-0.71725 0.45528,-1.19481 0.45469,-6.21318 -6.1e-4,-5.24178 -0.0424,-5.87839 -0.42126,-6.41597 -0.14043,-0.19927 -0.25533,-0.37534 -0.25533,-0.39126 0,-0.0159 0.19915,-0.0554 0.44256,-0.0877 1.78785,-0.23717 3.44908,-1.0359 5.3566,-2.5755 1.40082,-1.13063 1.86211,-1.24723 2.95492,-0.74692 1.17791,0.53926 2.16736,1.40199 2.88173,2.51264 0.3194,0.49658 0.38453,0.5529 0.66675,0.57661 0.34662,0.0291 0.38704,0.13417 0.19512,0.5071 -0.27157,0.52771 -0.30567,1.42 -0.30567,7.99764 0,7.31253 -0.0109,7.16328 0.56123,7.71888 0.33998,0.33019 0.31635,0.47105 -0.0794,0.47333 -0.35445,0.002 -1.52349,0.2167 -2.00583,0.36831 -0.68866,0.21645 -1.57747,0.61181 -1.65408,0.73578 -0.0271,0.0438 -0.12796,0.0797 -0.22417,0.0797 -0.15253,0 -0.16766,-0.0352 -0.1182,-0.27517 z m -0.71657,-2.83771 c 0.20716,-0.10136 0.37863,-0.29091 0.55402,-0.61246 l 0.254,-0.46566 v -5.97177 c 0,-6.51084 0.0335,-5.99465 -0.45516,-7.01551 -0.37654,-0.78665 -1.54866,-1.70672 -2.3571,-1.85024 -0.6671,-0.11843 -1.11882,0.003 -1.47373,0.3974 -0.16866,0.18724 -0.33126,0.4635 -0.36134,0.61389 -0.0301,0.1504 -0.0791,2.57988 -0.10899,5.39884 -0.0715,6.75144 -0.0137,7.28569 0.90138,8.32123 0.40162,0.4545 1.55662,1.24849 1.81902,1.25045 0.0953,7.2e-4 0.2304,0.0398 0.30025,0.087 0.15502,0.10457 0.52614,0.0433 0.92765,-0.15314 z m -53.844323,2.23354 c -0.116416,-0.0621 -0.512487,-0.26107 -0.880158,-0.44225 -0.71578,-0.35272 -1.847629,-1.36025 -2.082107,-1.85341 -0.06642,-0.1397 -0.162103,-0.31115 -0.212628,-0.381 -0.13145,-0.18173 -0.358156,-0.96676 -0.464558,-1.60867 -0.05017,-0.30268 -0.120309,-1.63618 -0.155859,-2.96333 -0.06725,-2.51066 -0.07477,-2.55917 -0.46806,-3.02057 -0.21832,-0.25612 -0.112231,-0.36617 0.352534,-0.36568 0.576101,6.1e-4 2.128065,-0.52846 3.124679,-1.06521 0.289397,-0.15586 0.546544,-0.25043 0.571439,-0.21015 0.0249,0.0403 0.0062,0.31505 -0.04144,0.61059 -0.197924,1.22666 -0.252254,2.31362 -0.200369,4.00868 0.08198,2.67828 0.246973,3.2346 1.255506,4.23334 0.629418,0.6233 1.351417,1.0449 1.920035,1.12117 0.541942,0.0727 1.111311,-0.3511 1.448628,-1.07822 0.166815,-0.35959 0.176904,-0.53083 0.184576,-3.13267 0.0073,-2.46866 -0.0087,-2.81336 -0.154602,-3.34495 -0.337756,-1.23021 -0.874391,-1.79021 -4.786203,-4.99454 -0.76786,-0.62898 -1.933249,-1.85817 -2.177676,-2.29688 -0.898282,-1.61229 -0.993774,-2.05677 -1.007386,-4.68891 -0.0149,-2.88025 -0.07512,-3.25713 -0.61219,-3.83117 -0.162762,-0.17396 -0.298202,-0.23283 -0.535671,-0.23283 -0.174806,0 -0.341074,-0.0376 -0.369483,-0.0836 -0.06919,-0.11195 1.022705,-0.80945 1.396327,-0.89197 0.162983,-0.036 0.652556,-0.0614 1.087941,-0.0564 0.620363,0.007 0.871803,0.0478 1.162329,0.18849 0.361128,0.17482 0.882396,0.72275 0.882396,0.92753 0,0.094 0.177401,0.54451 0.333621,0.84728 0.162998,0.3159 0.388981,0.19537 2.248713,-1.19941 1.142863,-0.85714 1.166369,-0.86813 1.614759,-0.75522 0.299246,0.0753 2.014232,0.87528 3.197082,1.49123 0.131913,0.0687 0.447055,0.14925 0.700317,0.17902 0.455116,0.0535 0.464298,0.0501 0.788708,-0.29092 0.180528,-0.18978 0.35116,-0.32212 0.379183,-0.2941 0.02802,0.028 0.04942,0.39703 0.04755,0.82001 -0.004,0.90666 -0.195798,1.44778 -0.734189,2.07146 -0.482969,0.55948 -1.498491,1.05294 -2.729276,1.32621 -0.522823,0.11608 -0.553731,0.1138 -0.732219,-0.0539 -0.109,-0.1024 -0.20948,-0.32928 -0.242063,-0.54656 -0.07314,-0.48776 -0.649639,-1.27071 -1.276742,-1.73398 -0.639855,-0.47269 -1.638796,-0.92368 -1.924824,-0.86901 -0.351706,0.0672 -0.877605,0.57918 -1.136366,1.10622 -0.229327,0.46709 -0.237794,0.53047 -0.23439,1.75459 0.0038,1.37428 0.05259,1.60331 0.552118,2.59286 0.302312,0.59888 0.662859,1.12566 1.353377,1.97735 0.604859,0.74604 1.073642,1.18321 2.97871,2.77779 0.817106,0.68394 1.676387,1.45222 1.909512,1.7073 0.479359,0.52449 1.009989,1.42032 1.089832,1.83989 0.02939,0.15444 0.105146,0.38369 0.168345,0.50944 0.08901,0.17709 0.114908,0.79188 0.114908,2.72736 0,2.32726 0.01204,2.52946 0.175438,2.94637 0.09649,0.2462 0.26794,0.54497 0.381,0.66394 0.201288,0.2118 0.270389,0.4187 0.139841,0.4187 -0.808988,0 -2.536318,0.45334 -3.322803,0.87207 -0.598341,0.31856 -2.093019,1.30732 -2.834476,1.87506 -0.372533,0.28525 -0.780768,0.58394 -0.907188,0.66375 -0.277491,0.17519 -1.030578,0.19085 -1.336479,0.0278 z m 42.164003,-0.15446 c -1.6676,-0.94669 -2.42939,-1.62843 -2.86565,-2.56454 -0.16844,-0.36143 -0.52183,-0.65458 -0.73904,-0.61306 -0.27301,0.0522 -0.32795,-0.0516 -0.17961,-0.33926 0.35673,-0.69179 0.34934,-0.54125 0.37776,-7.69809 l 0.0273,-6.87242 -0.18901,-0.17608 c -0.10395,-0.0969 -0.25335,-0.17608 -0.332,-0.17608 -0.18218,0 -0.36584,-0.21716 -0.28892,-0.34161 0.0323,-0.0523 0.22608,-0.24929 0.43062,-0.43783 0.28084,-0.25886 0.3719,-0.40508 0.3719,-0.59719 0,-0.25799 -0.23111,-0.71591 -0.53057,-1.05127 -0.0905,-0.10133 -0.142,-0.22066 -0.11448,-0.26518 0.0275,-0.0445 0.30773,-0.10711 0.6227,-0.13908 0.59635,-0.0605 1.32244,-0.23755 1.75801,-0.42858 0.71013,-0.31144 1.2164,-0.55727 1.50123,-0.72896 0.17374,-0.10473 0.3416,-0.1647 0.37303,-0.13327 0.0314,0.0314 -0.009,0.21948 -0.0907,0.41789 -0.0978,0.23872 -0.16347,0.69626 -0.19403,1.35261 -0.0485,1.04243 0.0278,1.43531 0.30206,1.55481 0.0772,0.0336 0.61667,0.0893 1.19875,0.12359 0.58209,0.0343 1.12501,0.0898 1.2065,0.1233 0.17058,0.0701 0.19922,0.42386 0.0423,0.52295 -0.0582,0.0368 -0.6137,0.0557 -1.23444,0.042 -0.92706,-0.0204 -1.16596,-3.4e-4 -1.33779,0.11225 l -0.20919,0.13707 0.0303,6.57806 c 0.033,7.16521 0.002,6.6929 0.51,7.71997 0.30451,0.61536 1.18849,1.43409 1.96599,1.82087 1.33673,0.66497 1.3312,0.70654 -0.23527,1.76792 -0.76381,0.51752 -0.86218,0.56069 -1.27,0.55725 -0.33458,-0.003 -0.55528,-0.068 -0.90773,-0.26807 z"
       id="path1" /></g></svg>
