<?xml version="1.0" encoding="UTF-8" standalone="no"?>
<svg
   width="290.86447"
   height="26.738892"
   viewBox="0 0 290.86447 26.738891"
   version="1.1"
   id="svg63"
   sodipodi:docname="coladiablosvg.svg"
   inkscape:version="1.2 (dc2aedaf03, 2022-05-15)"
   xmlns:inkscape="http://www.inkscape.org/namespaces/inkscape"
   xmlns:sodipodi="http://sodipodi.sourceforge.net/DTD/sodipodi-0.dtd"
   xmlns="http://www.w3.org/2000/svg"
   xmlns:svg="http://www.w3.org/2000/svg">
  <defs
     id="defs67" />
  <sodipodi:namedview
     id="namedview65"
     pagecolor="#505050"
     bordercolor="#ffffff"
     borderopacity="1"
     inkscape:showpageshadow="0"
     inkscape:pageopacity="0"
     inkscape:pagecheckerboard="1"
     inkscape:deskcolor="#505050"
     showgrid="false"
     inkscape:zoom="8.9152023"
     inkscape:cx="250.69538"
     inkscape:cy="27.368981"
     inkscape:window-width="1366"
     inkscape:window-height="697"
     inkscape:window-x="-8"
     inkscape:window-y="226"
     inkscape:window-maximized="1"
     inkscape:current-layer="svg63" />
  <path
     d="M 253.53843,0.13300798 290.86448,13.43595 253.53843,26.738892 272.20146,13.43595 Z"
     fill="#000000"
     id="path61"
     style="stroke-width:4.06835" />
  <path
     style="fill:#000000;stroke-width:0.24252;stroke-linecap:round;stroke-linejoin:round;stroke-miterlimit:10"
     id="path416"
     d="m 11.192159,7.200089 c 7.1917,2.779477 14.951577,4.544892 22.652237,6.319481 12.714222,3.020557 25.799729,4.826129 38.937578,6.188886 13.10421,1.268304 26.25167,2.159529 39.403616,2.895196 2.25434,0.105454 4.50836,0.220278 6.763,0.316363 4.94914,0.210914 8.32181,0.366845 13.25754,0.31128 6.78994,-0.07644 13.53071,-0.527997 20.26047,-1.016316 13.1996,-0.956078 26.26987,-2.525943 39.30375,-4.158021 6.12611,-0.855705 12.329,-1.42289 18.5094,-2.071781 5.01728,-0.526773 10.01277,-1.115003 15.04105,-1.598328 6.47353,-0.753712 13.02446,-1.185372 19.60654,-1.325004 5.96592,-0.122264 11.93677,0.139304 17.88515,0.695657 5.89434,0.501736 11.5441,1.85896 17.15574,3.281556 0,0 -10.83994,-6.829019 -10.83994,-6.829019 v 0 C 263.55921,8.985237 257.95787,7.815127 252.1935,7.316076 246.14098,6.775854 240.04977,6.515656 233.98418,6.643319 c -0.28171,0.01272 -5.52928,0.249013 -5.64275,0.256416 -4.51714,0.294721 -8.91513,1.070543 -13.39034,1.53363 -10.90278,1.425433 -21.8189,2.799416 -32.74348,4.150782 -6.56776,0.820863 -13.12928,1.662024 -19.73385,2.348435 -6.03489,0.627204 -7.2073,0.685399 -13.22132,1.22255 -2.08126,0.185889 -4.16073,0.379763 -6.2411,0.569643 -5.31741,0.363784 -8.11404,0.605403 -13.45733,0.770813 -8.90428,0.275648 -17.84393,0.03612 -26.76084,-0.541611 C 89.669987,16.11115 76.527555,15.386931 63.454545,14.024103 50.332828,12.531344 37.191519,10.85783 24.535236,7.646005 19.05455,6.243557 13.546217,4.8816124 8.2449761,3.1131074 6.2894401,2.460738 4.0441121,1.55126 2.109599,0.8049202 1.408033,0.5342531 0.703203,0.2683073 0,0 0,0 11.192159,7.200088 11.192159,7.200089 Z" />
</svg>